<svg width="80" height="80" viewBox="0 0 80 80" fill="none" xmlns="http://www.w3.org/2000/svg">
<path d="M25.7573 33.9188C26.4862 38.6561 30.1468 44.6854 36.1596 46.8056C38.6276 47.667 41.3275 47.6835 43.7956 46.7891C49.7089 44.6523 53.4855 38.6396 54.2309 33.9188C55.026 33.8526 56.0695 32.7428 57.1959 28.7508C58.7363 23.3013 57.0965 22.4896 55.7051 22.6221C55.9701 21.8768 56.1689 21.1148 56.3014 20.386C58.6535 6.25686 51.6966 5.7765 51.6966 5.7765C51.6966 5.7765 50.5371 3.55692 47.5059 1.88395C45.4685 0.674778 42.6361 -0.252809 38.9092 0.061908C37.7 0.1116 36.5571 0.360061 35.4804 0.707906C34.1056 1.1717 32.8468 1.85082 31.7038 2.6459C30.3125 3.52379 28.9873 4.61702 27.8278 5.85932C25.9892 7.74763 24.3494 10.1825 23.6371 13.2138C23.0408 15.483 23.1734 17.8517 23.6703 20.4026C23.8028 21.1479 24.0016 21.8933 24.2666 22.6387C22.8752 22.5062 21.2354 23.3178 22.7758 28.7674C23.9187 32.7428 24.9623 33.8526 25.7573 33.9188Z" fill="#222222"/>
<path d="M67.3166 52.4539C58.8523 50.3006 51.9782 45.4639 51.9782 45.4639L46.6115 62.442L45.6011 65.6388L45.5845 65.5891L44.7066 68.3056L41.8742 60.2721C48.8311 50.5656 40.4662 50.665 40.0025 50.6815C39.5387 50.665 31.1738 50.5656 38.1307 60.2721L35.2983 68.3056L34.4204 65.5891L34.4038 65.6388L33.3934 62.442L28.0101 45.4639C28.0101 45.4639 21.136 50.3006 12.6718 52.4539C6.36089 54.0606 6.06274 61.3488 6.3112 64.9431C6.3112 64.9431 6.67561 69.8295 7.04002 71.9829C7.04002 71.9829 19.3637 79.9833 40.0025 79.9998C60.6412 79.9998 72.9649 71.9829 72.9649 71.9829C73.3293 69.8295 73.6937 64.9431 73.6937 64.9431C73.9256 61.3488 73.6274 54.0606 67.3166 52.4539Z" fill="#222222"/>
</svg>
