<svg width="80" height="80" viewBox="0 0 80 80" fill="none" xmlns="http://www.w3.org/2000/svg">
<path fill-rule="evenodd" clip-rule="evenodd" d="M44.7382 4.55344L49.5016 8.11906C50.8045 9.09422 52.1757 9.59328 53.8006 9.68375L59.7413 10.0142C63.2987 10.212 66.1879 12.6362 67.0004 16.1053L68.3576 21.8986C68.7287 23.483 69.4584 24.7467 70.6449 25.8603L74.9835 29.9323C77.5813 32.3705 78.2362 36.0847 76.629 39.2644L73.9448 44.5745C73.2107 46.0269 72.9573 47.4639 73.1504 49.0797L73.8567 54.9878C74.2795 58.5254 72.3937 61.7915 69.1187 63.1942L63.649 65.5367C62.1531 66.1773 61.0352 67.1153 60.1446 68.4772L56.8879 73.4568C54.9379 76.4386 51.3938 77.7284 47.9835 76.6978L42.2879 74.9765C40.7302 74.5058 39.271 74.5058 37.7132 74.9765L32.0176 76.6978C28.6073 77.7284 25.0632 76.4386 23.1132 73.4568L19.8565 68.4772C18.9657 67.1153 17.8479 66.1773 16.3521 65.5367L10.8821 63.1939C7.60711 61.7912 5.72133 58.5251 6.14414 54.9875L6.85039 49.0794C7.04352 47.4636 6.79008 46.0265 6.05602 44.5742L3.3718 39.264C1.76461 36.0845 2.41945 32.3703 5.01727 29.932L9.35586 25.86C10.5424 24.7464 11.272 23.4826 11.643 21.8983L13.0002 16.105C13.8127 12.6361 16.702 10.2119 20.2593 10.0139L26.2001 9.68343C27.8249 9.59312 29.1962 9.0939 30.499 8.11875L35.2624 4.55312C38.1145 2.41844 41.886 2.41844 44.7382 4.55344ZM36.9616 42.0408L31.7923 36.8714C30.4524 35.5316 28.2791 35.5316 26.9395 36.8714C25.5996 38.2112 25.5996 40.3844 26.9395 41.7242L34.5427 49.3273C35.8826 50.667 38.0559 50.6672 39.3956 49.3273C43.9784 44.7444 48.5093 40.11 53.071 35.5061C54.4012 34.1636 54.397 31.9973 53.0562 30.6641C51.7152 29.3305 49.5427 29.3342 48.2112 30.6791L36.9616 42.0408ZM40.0002 14.4461C32.9438 14.4461 26.5552 17.3064 21.9309 21.9308C17.3065 26.5553 14.4462 32.9437 14.4462 40.0001C14.4462 47.0565 17.3065 53.4451 21.9309 58.0695C26.5552 62.6939 32.9438 65.5542 40.0002 65.5542C47.0567 65.5542 53.4452 62.6939 58.0696 58.0695C62.694 53.4451 65.5543 47.0565 65.5543 40.0001C65.5543 32.9437 62.694 26.5551 58.0696 21.9308C53.4452 17.3064 47.0567 14.4461 40.0002 14.4461ZM56.302 23.6984C52.1301 19.5266 46.3665 16.9461 40.0002 16.9461C33.634 16.9461 27.8704 19.5266 23.6985 23.6984C19.5266 27.8703 16.9462 33.6339 16.9462 40.0001C16.9462 46.3664 19.5266 52.13 23.6985 56.3019C27.8704 60.4737 33.634 63.0542 40.0002 63.0542C46.3665 63.0542 52.1301 60.4737 56.302 56.302C60.4738 52.1301 63.0542 46.3665 63.0542 40.0003C63.0543 33.6339 60.4738 27.8703 56.302 23.6984Z" fill="#222222"/>
</svg>
