<svg width="80" height="80" viewBox="0 0 80 80" fill="none" xmlns="http://www.w3.org/2000/svg">
<g clip-path="url(#clip0_128_1036)">
<path d="M40.0001 27.1255C32.8969 27.1255 27.1255 32.8969 27.1255 40.0001C27.1255 47.1033 32.8969 52.8747 40.0001 52.8747C47.1033 52.8747 52.8747 47.1033 52.8747 40.0001C52.8747 32.8969 47.1033 27.1255 40.0001 27.1255ZM39.0234 36.1821C37.4252 36.1821 36.0933 37.5139 36.0933 39.1122H31.8314C31.9202 35.1166 35.1166 31.9202 39.0234 31.9202V36.1821Z" fill="#222222"/>
<path d="M79.0677 37.3364C74.717 31.9202 59.1787 14.251 40 14.251C20.8213 14.251 5.28302 31.9202 0.932297 37.3364C-0.310766 38.8459 -0.310766 41.0656 0.932297 42.6639C5.28302 48.0801 20.8213 65.7493 40 65.7493C59.1787 65.7493 74.717 48.0801 79.0677 42.6639C80.3108 41.1544 80.3108 38.9347 79.0677 37.3364ZM40 58.6461C29.7003 58.6461 21.354 50.2998 21.354 40.0001C21.354 29.7005 29.7003 21.3542 40 21.3542C50.2997 21.3542 58.6459 29.7005 58.6459 40.0001C58.6459 50.2998 50.2997 58.6461 40 58.6461Z" fill="#222222"/>
</g>
<defs>
<clipPath id="clip0_128_1036">
<rect width="80" height="80" fill="white"/>
</clipPath>
</defs>
</svg>
