<svg width="80" height="80" viewBox="0 0 80 80" fill="none" xmlns="http://www.w3.org/2000/svg">
<path d="M64.5923 2.68619C61.6002 3.48792 59.5511 6.64761 60.647 9.67591L70.1221 35.8551C70.7869 35.3072 71.6265 34.9932 72.5049 34.9932C73.9272 34.9649 75.457 34.9696 76.8286 35.0542L71.5088 6.75344C70.9903 3.9958 68.3753 2.3357 65.7251 2.50049C65.3467 2.52411 64.9662 2.58603 64.5923 2.68619ZM66.25 7.49811C66.9404 7.49811 67.5 8.05761 67.5 8.74799C67.5 9.43836 66.9404 9.99801 66.25 9.99801C65.5596 9.99801 65 9.43832 65 8.74799C65 8.05766 65.5596 7.49811 66.25 7.49811ZM37.0117 16.3506C33.9015 17.7051 32.0084 20.6261 31.0449 23.3305L30.0073 26.2457H45.0854C45.5073 25.1023 46.0918 24.1142 47.8393 23.0987L60.0561 15.3887L58.2959 10.5254C57.9675 9.61771 57.8338 8.70599 57.854 7.8179L37.0117 16.3506ZM28.7573 28.7456C26.6957 28.7456 25.2387 30.4914 25.0195 32.354L25.0479 32.1976L22.7774 41.2479H6.25149C4.19562 41.2479 2.49663 42.9396 2.49663 44.9955V53.7529C2.49663 55.8087 4.19562 57.4979 6.25149 57.4979H48.7539C50.81 57.4979 52.555 55.812 52.5088 53.7234V44.9955C52.5076 44.8372 52.4757 44.6808 52.4162 44.5339L47.4162 32.0315C47.1469 31.3587 46.8406 30.6252 46.2883 29.9636C45.7359 29.302 44.8192 28.7454 43.7614 28.7454L28.7573 28.7456ZM31.2427 33.7481H31.2568H35.0044V43.7504H29.2549C28.4293 43.7517 27.8288 42.9673 28.0464 42.1709L30.0484 34.6782C30.192 34.1351 30.6805 33.7547 31.2422 33.7481H31.2427ZM37.5049 33.7481H41.5185C42.0214 33.7478 42.4754 34.049 42.6709 34.5122L47.4048 45.7623C47.4714 45.9163 47.5064 46.0825 47.5073 46.2504V51.253C47.5048 51.9395 46.9487 52.4953 46.2622 52.4981H38.7597C38.3416 52.4994 37.9501 52.2916 37.7172 51.9439L37.5046 51.6241L37.5049 33.7481ZM72.5049 37.4932C72.108 37.4932 71.7347 37.6816 71.499 38.0009L60.2514 52.9961C59.6321 53.8189 60.2184 54.9959 61.2475 54.9981H68.75C73.5758 54.9981 77.4951 51.0763 77.4951 46.2504V38.748C77.4976 38.0577 76.9403 37.4959 76.25 37.4931L72.5049 37.4932ZM8.7329 46.231C9.43471 46.2215 10.0057 46.7937 9.99757 47.4956V51.253C10.0354 52.9575 7.45929 52.9575 7.49756 51.253V47.4956C7.48811 46.8052 8.04257 46.2391 8.7329 46.231ZM13.7353 46.231C14.4371 46.2215 15.0082 46.7937 15 47.4956V51.253C15.0378 52.956 12.4632 52.956 12.5 51.253V47.4956C12.4906 46.8052 13.045 46.2391 13.7353 46.231ZM18.728 46.231C19.4327 46.2168 20.0083 46.7908 20 47.4956V51.253C19.9622 52.8827 17.5366 52.8827 17.5 51.253V47.4956C17.4905 46.8081 18.0405 46.2431 18.728 46.231ZM11.2524 59.9981C6.42658 59.9981 2.49512 63.9222 2.49512 68.748C2.49512 73.5739 6.42658 77.4931 11.2524 77.4931H50C54.8259 77.4931 58.7451 73.5739 58.7451 68.748C58.7451 63.9222 54.8259 59.9981 50 59.9981H11.2524ZM13.7549 65.0004C15.8111 65.0004 17.4999 66.6918 17.5 68.748C17.5 70.8043 15.8112 72.503 13.7549 72.503C11.6986 72.503 9.99757 70.8043 9.99757 68.748C9.99757 66.6918 11.6987 65.0004 13.7549 65.0004ZM25.0024 65.0004C27.0587 65.0004 28.7475 66.6918 28.7476 68.748C28.7476 70.8043 27.0587 72.503 25.0024 72.503C22.9461 72.503 21.2451 70.8043 21.2451 68.748C21.2451 66.6918 22.9462 65.0004 25.0024 65.0004ZM36.25 65.0004C38.3062 65.0004 39.9951 66.6918 39.9951 68.748C39.9951 70.8043 38.3063 72.503 36.25 72.503C34.1937 72.503 32.5049 70.8043 32.5049 68.748C32.5049 66.6918 34.1937 65.0004 36.25 65.0004ZM47.4976 65.0004C49.5538 65.0004 51.2549 66.6918 51.2549 68.748C51.2549 70.8043 49.5539 72.503 47.4976 72.503C45.4413 72.503 43.7524 70.8043 43.7524 68.748C43.7525 66.6918 45.4413 65.0004 47.4976 65.0004Z" fill="#222222"/>
</svg>
