<svg width="70" height="47" viewBox="0 0 70 47" fill="none" xmlns="http://www.w3.org/2000/svg">
<path d="M46.3062 46.6667H0V0H46.3062V15.9676H44.1596V2.16331H2.1466V44.5032H44.1596V30.5959H46.3062V46.6667Z" fill="#F41707"/>
<path d="M9.46094 18.54H11.6115V22.6719L14.6899 18.54H17.2708L13.7355 22.9157L17.553 28.0229H14.8244L11.6115 23.5118V28.0229H9.46094V18.54Z" fill="#F41707"/>
<path d="M23.1622 26.0677C24.8969 26.0677 25.7968 24.8324 25.7968 23.2813C25.7968 21.5989 24.636 20.4949 23.1622 20.4949C21.6492 20.4949 20.5277 21.5989 20.5277 23.2813C20.5277 24.8586 21.7016 26.0677 23.1622 26.0677ZM23.1622 18.5234C25.9401 18.5234 28.0139 20.3503 28.0139 23.2813C28.0139 26.0677 25.9401 28.0394 23.1622 28.0394C20.3844 28.0394 18.3105 26.2123 18.3105 23.2813C18.3105 20.6132 20.2538 18.5234 23.1622 18.5234Z" fill="#F41707"/>
<path d="M37.061 28.0233L32.5984 22.3334V28.0233H30.582V18.543H32.3025L36.7655 24.2573L36.7626 18.5433H38.7788L38.7817 28.0233H37.061Z" fill="#F41707"/>
<path d="M41.3691 18.54H49.1655V20.5722H46.3426V28.0229H44.1918V20.5722H41.3691V18.54Z" fill="#F41707"/>
<path d="M59.6005 23.9439C59.6005 26.8431 57.7724 28.0217 55.7562 28.0217C53.3366 28.0217 51.6562 26.6261 51.6562 23.8492V18.5439H53.807V23.3886C53.807 24.8652 54.2507 25.9896 55.7562 25.9896C57.06 25.9896 57.4499 25.0278 57.4499 23.5104V18.5439H59.6005V23.9439Z" fill="#F41707"/>
<path d="M64.3363 20.6033V22.7028H65.1158C65.9359 22.7028 66.581 22.4049 66.581 21.6056C66.581 21.0773 66.3137 20.601 65.2786 20.601C64.9561 20.601 64.78 20.5897 64.3363 20.6033ZM62.1855 28.0217V18.5439C62.7098 18.5439 65.1158 18.5439 65.3848 18.5439C67.9522 18.5439 68.8662 19.8311 68.8662 21.5786C68.8662 23.3397 67.791 24.0576 67.2801 24.315L69.9999 28.0217H67.392L65.1293 24.7349H64.3363V28.0217H62.1855Z" fill="#F41707"/>
</svg>
