<svg width="130" height="90" viewBox="0 0 130 90" fill="none" xmlns="http://www.w3.org/2000/svg">
<path fill-rule="evenodd" clip-rule="evenodd" d="M13.437 74.1722C13.337 72.9402 13.2536 71.9139 13.1914 71.2691L17.0227 69.8501L56.2379 71.2691H122.543C122.528 71.4278 122.511 71.601 122.494 71.7869C122.159 75.2768 121.396 83.2368 120.643 84.1154C120.348 84.4596 119.826 85.0176 119.223 85.6621C117.8 87.1835 115.927 89.1872 115.52 89.9997H56.2389V89.9998H20.2145C19.9154 89.4016 18.8208 89.0685 17.6964 88.7264C16.6465 88.407 15.5705 88.0796 15.0918 87.521C14.4615 86.7857 13.8242 78.9394 13.437 74.1722Z" fill="#3F3C3D"/>
<path d="M41.5199 86.1688H39.8218V77.644H41.5199V81.0666H45.7699V77.644H47.4681V86.1688H45.7699V82.7725H41.5199V86.1688Z" fill="white"/>
<path d="M55.488 86.1687H48.6846V77.644H55.4926L56.3324 78.5085V81.0665L55.4926 81.9187L56.3324 82.7708V85.3366L55.488 86.1687ZM50.3827 81.0665H54.6327V79.3498H50.3827V81.0665ZM50.3827 84.4628H54.6327V82.7646H50.3827V84.4628Z" fill="white"/>
<path d="M75.4848 86.1684H73.7867V79.3496H70.7964V77.6514H78.4442V79.3496H75.4848V86.1684Z" fill="white"/>
<path d="M81.0004 86.1687H79.3022V77.644H86.1103L86.9501 78.5085V82.7708L86.1103 83.6245H81.0004V86.1687ZM81.0004 81.9187H85.2519V79.3498H81.0004V81.9187Z" fill="white"/>
<path d="M94.8434 86.1688H88.8799L88.04 85.3367V78.5086L88.8799 77.644H94.8434L95.6833 78.5086V85.3367L94.8434 86.1688ZM89.749 84.4644H94.0005V79.3499H89.749V84.4644Z" fill="white"/>
<path d="M98.6103 86.1683H96.9121V77.6436H98.6103V83.3185L102.862 77.6436H104.56V86.1683H102.862V80.4811L98.6103 86.1683ZM103.714 75.9516L102.862 76.8038H98.6103L97.7457 75.9516" fill="white"/>
<path d="M32.7762 81.1452V79.3498H33.9618L35.0872 77.644H31.9117L31.0703 78.5085V83.7295L32.7762 81.1452Z" fill="white"/>
<path d="M37.8779 77.644H36.6506L35.5283 79.3499H37.0258V80.2021H38.7178V78.5086L37.8779 77.644Z" fill="white"/>
<path d="M37.0261 84.4637H32.7761V83.5312L31.3867 85.6431L31.9116 86.168H37.8783L38.7181 85.3282V83.6239H37.0261V84.4637Z" fill="white"/>
<path d="M64.1546 81.1452V79.3498H65.3402L66.4656 77.644H63.2901L62.4487 78.5085V83.7295L64.1546 81.1452Z" fill="white"/>
<path d="M69.2568 77.644H68.0295L66.9072 79.3498H68.4047V80.202H70.0967V78.5085L69.2568 77.644Z" fill="white"/>
<path d="M68.4046 84.4637H64.1546V83.5312L62.7637 85.6431L63.2901 86.168H69.2568L70.0966 85.3282V83.6239H68.4046V84.4637Z" fill="white"/>
<g clip-path="url(#clip0_229_711)">
<ellipse cx="65.4742" cy="51.946" rx="50.4913" ry="50.4913" transform="rotate(6.22135 65.4742 51.946)" fill="#FCE729"/>
<mask id="mask0_229_711" style="mask-type:alpha" maskUnits="userSpaceOnUse" x="14" y="1" width="102" height="102">
<circle cx="65.4742" cy="51.946" r="50.4913" transform="rotate(6.22135 65.4742 51.946)" fill="#FCE729"/>
</mask>
<g mask="url(#mask0_229_711)">
<path d="M36.0914 10.1052C122.068 25.3111 95.5494 78.4685 71.5429 103.146L68.4664 105.996L3.62363 95.7425C8.09808 92.6263 18.4381 85.4729 24.0026 81.7883C78.9501 42.1171 49.1138 21.8617 27.3272 16.693C28.6306 13.706 32.2083 8.20681 36.0914 10.1052Z" fill="white"/>
</g>
<path d="M32.6113 13.5817L43.7331 16.8895L38.1384 16.6986L31.5918 14.4764L32.6113 13.5817Z" fill="#3F3C3D"/>
<path d="M43.5615 18.4624C47.0229 19.3091 53.5088 23.3183 56.319 25.2171L63.2766 25.9756C58.3813 22.2906 52.5663 19.919 50.2706 19.1938L43.5615 18.4624Z" fill="#3F3C3D"/>
<path d="M59.4604 27.1523C64.1954 29.8476 68.3281 34.9916 69.4563 37.7128L75.9169 38.4171C71.8458 31.9388 71.6063 31.8289 66.915 27.9649L59.4604 27.1523Z" fill="#3F3C3D"/>
<path d="M70.7681 40.2866C74.0741 46.0948 72.3865 53.1187 69.5934 59.5193L76.1369 60.2326C79.1089 51.421 79.4281 50.031 77.3943 41.009L70.7681 40.2866Z" fill="#3F3C3D"/>
<path d="M68.4205 61.8216C66.2147 67.4481 55.4285 79.5146 52.7301 82.7406L61.5099 83.6977C64.6645 78.5938 69.7618 74.1207 75.0468 62.544L68.4205 61.8216Z" fill="#3F3C3D"/>
</g>
<path d="M73.0612 63.6063H56.816C56.3869 63.6063 56.0391 63.9542 56.0391 64.3832V73.389C56.0391 73.8181 56.3869 74.1659 56.816 74.1659H73.0612C73.4903 74.1659 73.8382 73.8181 73.8382 73.389V64.3832C73.8382 63.9542 73.4903 63.6063 73.0612 63.6063Z" fill="#2D2D2D"/>
<path d="M73.9605 64.2096H55.9198C55.7655 64.2096 55.6175 64.1483 55.5083 64.0392C55.3992 63.9301 55.3379 63.782 55.3379 63.6277V56.5468C55.3379 56.3924 55.3992 56.2444 55.5083 56.1352C55.6175 56.0261 55.7655 55.9648 55.9198 55.9648H73.9605C74.1148 55.9648 74.2628 56.0261 74.372 56.1352C74.4811 56.2444 74.5424 56.3924 74.5424 56.5468V63.6277C74.5424 63.782 74.4811 63.9301 74.372 64.0392C74.2628 64.1483 74.1148 64.2096 73.9605 64.2096Z" fill="white" stroke="#2D2D2D" stroke-width="4" stroke-miterlimit="10"/>
<path d="M59.3594 59.5848H57.4477C56.8925 59.5848 56.4424 60.0349 56.4424 60.5902C56.4424 61.1454 56.8925 61.5955 57.4477 61.5955H59.3594C59.9147 61.5955 60.3648 61.1454 60.3648 60.5902C60.3648 60.0349 59.9147 59.5848 59.3594 59.5848Z" fill="#2D2D2D" stroke="white" stroke-miterlimit="10"/>
<path d="M59.7607 60.7113V60.6692C59.7607 60.4586 59.5901 60.288 59.3796 60.288H58.332C58.1215 60.288 57.9509 60.4586 57.9509 60.6692V60.7113C57.9509 60.9219 58.1215 61.0925 58.332 61.0925H59.3796C59.5901 61.0925 59.7607 60.9219 59.7607 60.7113Z" fill="white"/>
<path d="M57.6484 60.8728V60.5077C57.6484 60.3863 57.5501 60.288 57.4288 60.288H57.2643C57.143 60.288 57.0447 60.3863 57.0447 60.5077V60.8728C57.0447 60.9942 57.143 61.0925 57.2643 61.0925H57.4288C57.5501 61.0925 57.6484 60.9942 57.6484 60.8728Z" fill="white"/>
<path d="M70.7221 61.5955H72.6338C73.1891 61.5955 73.6392 61.1454 73.6392 60.5902C73.6392 60.035 73.1891 59.5849 72.6338 59.5849H70.7221C70.1669 59.5849 69.7168 60.035 69.7168 60.5902C69.7168 61.1454 70.1669 61.5955 70.7221 61.5955Z" fill="#2D2D2D" stroke="white" stroke-miterlimit="10"/>
<path d="M72.1289 60.7123V60.6701C72.1289 60.4596 71.9582 60.2889 71.7477 60.2889H70.7002C70.4897 60.2889 70.319 60.4596 70.319 60.6701V60.7123C70.319 60.9228 70.4897 61.0935 70.7002 61.0935H71.7477C71.9582 61.0935 72.1289 60.9228 72.1289 60.7123Z" fill="white"/>
<path d="M73.0342 60.8738V60.5086C73.0342 60.3873 72.9358 60.2889 72.8145 60.2889H72.6501C72.5288 60.2889 72.4304 60.3873 72.4304 60.5086V60.8738C72.4304 60.9951 72.5288 61.0935 72.6501 61.0935H72.8145C72.9358 61.0935 73.0342 60.9951 73.0342 60.8738Z" fill="white"/>
<path d="M56.3916 58.1254V56.0653" stroke="#2D2D2D" stroke-width="4" stroke-miterlimit="10"/>
<path d="M73.4863 58.3276V56.266" stroke="#2D2D2D" stroke-width="4" stroke-miterlimit="10"/>
<path d="M55.335 58.2548H74.6442" stroke="#2D2D2D" stroke-width="4" stroke-miterlimit="10"/>
<path d="M56.1117 53.9047L56.8085 39.8258V39.7312L56.8638 38.6444C56.8709 38.5012 56.9323 38.366 57.0356 38.2665C57.1388 38.167 57.2762 38.1107 57.4196 38.109L72.6261 37.9228C72.7739 37.9208 72.9166 37.9771 73.0233 38.0795C73.13 38.1818 73.1922 38.322 73.1964 38.4698L73.2342 39.8258L73.6372 54.0837L73.6765 55.4775C73.6787 55.5543 73.6651 55.6307 73.6366 55.702C73.608 55.7733 73.5652 55.838 73.5107 55.8921L72.6377 56.7651C72.5315 56.8699 72.3884 56.9289 72.2391 56.9295H57.8313C57.6821 56.9289 57.5389 56.8699 57.4327 56.7651L56.2164 55.5488C56.1606 55.4929 56.1172 55.426 56.0888 55.3523C56.0605 55.2787 56.048 55.1999 56.052 55.121L56.1117 53.9047Z" fill="#2D2D2D"/>
<path d="M58.6042 54.2045H58.6027C58.381 54.2045 58.2012 54.3843 58.2012 54.606V55.8136C58.2012 56.0354 58.381 56.2151 58.6027 56.2151H58.6042C58.8259 56.2151 59.0057 56.0354 59.0057 55.8136V54.606C59.0057 54.3843 58.8259 54.2045 58.6042 54.2045Z" fill="white"/>
<path d="M60.6657 54.2538H60.6642C60.4425 54.2538 60.2627 54.4336 60.2627 54.6554V55.8629C60.2627 56.0847 60.4425 56.2645 60.6642 56.2645H60.6657C60.8875 56.2645 61.0672 56.0847 61.0672 55.8629V54.6554C61.0672 54.4336 60.8875 54.2538 60.6657 54.2538Z" fill="white"/>
<path d="M62.6779 54.2538H62.6765C62.4547 54.2538 62.2749 54.4336 62.2749 54.6554V55.8629C62.2749 56.0847 62.4547 56.2645 62.6765 56.2645H62.6779C62.8997 56.2645 63.0795 56.0847 63.0795 55.8629V54.6554C63.0795 54.4336 62.8997 54.2538 62.6779 54.2538Z" fill="white"/>
<path d="M65.0915 54.2538H65.09C64.8683 54.2538 64.6885 54.4336 64.6885 54.6554V55.8629C64.6885 56.0847 64.8683 56.2645 65.09 56.2645H65.0915C65.3133 56.2645 65.493 56.0847 65.493 55.8629V54.6554C65.493 54.4336 65.3133 54.2538 65.0915 54.2538Z" fill="white"/>
<path d="M67.4035 54.2538H67.402C67.1803 54.2538 67.0005 54.4336 67.0005 54.6554V55.8629C67.0005 56.0847 67.1803 56.2645 67.402 56.2645H67.4035C67.6253 56.2645 67.805 56.0847 67.805 55.8629V54.6554C67.805 54.4336 67.6253 54.2538 67.4035 54.2538Z" fill="white"/>
<path d="M69.4152 54.2538H69.4138C69.192 54.2538 69.0122 54.4336 69.0122 54.6554V55.8629C69.0122 56.0847 69.192 56.2645 69.4138 56.2645H69.4152C69.637 56.2645 69.8168 56.0847 69.8168 55.8629V54.6554C69.8168 54.4336 69.637 54.2538 69.4152 54.2538Z" fill="white"/>
<path d="M71.5265 54.2538H71.5251C71.3033 54.2538 71.1235 54.4336 71.1235 54.6554V55.8629C71.1235 56.0847 71.3033 56.2645 71.5251 56.2645H71.5265C71.7483 56.2645 71.9281 56.0847 71.9281 55.8629V54.6554C71.9281 54.4336 71.7483 54.2538 71.5265 54.2538Z" fill="white"/>
<path d="M57.1099 53.777L57.4008 39.8246H57.4256L57.9319 52.8939L57.1099 53.777ZM58.3582 52.5956L58.009 39.8246H60.7151V52.5956H58.3582ZM61.62 52.5956V39.8246H68.458V52.5956H61.62ZM69.3644 52.5956V39.8246H72.0617L71.618 52.5956H69.3644ZM72.6815 54.0752L72.1272 53.0568L72.5637 39.8275H72.5971L72.8823 54.0752H72.6815Z" fill="white"/>
<path d="M73.2356 68.8363H56.6426V69.7413H73.2356V68.8363Z" fill="white"/>
<path fill-rule="evenodd" clip-rule="evenodd" d="M116.894 65.4964H116.902H116.894ZM91.0936 37.9623L90.6807 37.8842L91.0936 37.9623Z" fill="white"/>
<path fill-rule="evenodd" clip-rule="evenodd" d="M128.854 69.7084L128.741 65.5678L127.274 65.0002L127.003 65.3209V65.2656C127.019 64.7259 126.939 64.1877 126.766 63.6763C126.575 63.1054 126.322 62.5572 126.011 62.0416L125.628 58.4331L125.554 58.3281C124.736 57.1929 123.194 56.5218 121.898 56.1145C119.872 55.4802 117.595 55.1822 115.476 55.0006L114.413 51.3027L115.468 50.5294L113.481 48.9358L111.861 48.9472H110.962L109.22 48.4151L109.143 48.3895H109.061L102.983 48.4293C102.189 48.4293 101.39 48.4477 100.594 48.4435C100.344 48.4435 100.094 48.4505 99.8446 48.4733C99.3643 48.5104 98.8938 48.6279 98.4525 48.8209L99.46 47.2969L99.5693 47.1337L99.4458 46.9791L94.9547 41.3712L94.2566 38.3246L95.3918 35.9507L95.5337 35.6442L95.2087 35.5704L82.4378 32.7437L82.2505 32.7026L82.154 32.8629L79.3813 37.2618L79.3302 37.3441L79.3416 37.4378L79.8198 41.4308L70.4544 58.7496L70.3892 58.8688L70.4473 58.9922L74.0658 66.0574L75.9686 65.8403L76.5362 66.459C75.367 67.0393 74.6319 68.708 74.8051 70.6677C75.0222 73.1012 76.5547 75.0665 78.2319 75.0509L81.1465 74.5642C81.2019 74.5401 81.2572 74.5146 81.3111 74.4862C81.4781 74.5249 81.6491 74.5439 81.8205 74.5429L83.6652 74.235C84.2782 74.919 85.0346 75.3234 85.8122 75.3021L88.7168 74.7572C88.7736 74.7317 88.8275 74.7033 88.88 74.6749C89.0478 74.711 89.2193 74.7268 89.3909 74.7217L92.2941 74.1768C93.5116 73.6192 94.0792 72.3321 94.1501 70.9132L95.2272 71.0395L95.1988 72.5081L103.835 73.1807C104.343 72.8643 105.387 72.1477 105.897 71.8327L106.606 71.7646C107.411 74.9857 109.819 76.2968 112.228 76.2968C114.202 76.2968 116.176 75.417 117.268 73.9881C117.233 74.0349 117.197 74.0803 117.16 74.13C120.208 75.7973 124.586 74.3116 125.664 71.4084L128.041 70.7968L128.183 70.7457L128.873 69.9043L128.854 69.7084ZM116.894 65.494H116.902H116.894ZM91.0936 37.9628L90.6807 37.8833L91.0936 37.9614V37.9628ZM86.9786 39.6173C86.983 39.6254 86.9882 39.6331 86.9942 39.64L86.9786 39.6173ZM94.4992 60.275L93.3144 58.1834L96.5596 52.9331L96.9683 52.8721C96.9314 55.3937 96.8576 57.9166 96.7781 60.4353L94.4992 60.275ZM103.917 72.1491L104.021 72.0852L103.917 72.1491ZM104.086 72.0455L104.242 71.949L104.086 72.0455Z" fill="white"/>
<path fill-rule="evenodd" clip-rule="evenodd" d="M94.238 42.0012L98.1061 46.9024L99.7493 47.0769L95.9024 42.2708L94.238 42.0012ZM93.0701 38.3913L93.4334 40.7936L95.4086 41.1229L94.8609 38.7319L93.0701 38.3913ZM92.7863 41.7642L96.6559 46.7491L96.9766 46.7832L93.0503 41.8068L92.7863 41.7642ZM91.803 38.1515L92.1705 40.5836L92.582 40.6532L92.2287 38.2295L91.803 38.1515ZM88.9849 41.1456C89.9285 42.4723 90.8579 43.7593 91.6412 44.8449C92.0428 45.4025 92.4089 45.9077 92.7111 46.3305L95.5292 46.63L91.6057 41.5727L88.9849 41.1456ZM87.8397 37.3966L88.0951 39.8855L88.1093 39.9068L91.3248 40.4432L90.9544 37.9897L87.8397 37.3966ZM87.546 40.91L91.2212 46.139L91.1814 46.1674L91.6341 46.2142L90.987 45.3202C90.0548 44.0289 88.9238 42.461 87.8653 40.9611L87.546 40.91ZM86.5655 37.1539L86.8365 39.6925L87.2764 39.7663L87.0167 37.2377L86.5655 37.1539ZM85.9979 39.5549L85.7354 37.0007L83.0577 36.4913C83.316 37.7684 83.4621 38.6297 83.5416 39.1505L85.9979 39.5549ZM83.3855 40.3069L82.6193 41.716L85.9496 46.0283L86.6322 44.8931L83.3855 40.3069ZM77.9267 59.3583L75.0447 55.6278L74.1734 57.2284L77.0029 60.8922L77.9267 59.3583ZM79.716 56.3855L76.7361 52.5244L75.8649 54.1265L78.7937 57.9194L79.716 56.3855ZM81.5054 53.4056L78.4247 49.4169L77.5521 51.0175L80.5816 54.9509L81.5054 53.4056ZM83.289 50.4399L80.1077 46.3249L79.2364 47.9269L82.3582 51.9795L83.289 50.4399ZM85.0798 47.4601L81.7977 43.2102L80.925 44.8108L84.156 48.994L85.0798 47.4601ZM116.278 64.6866L116.343 64.6752C116.361 64.6722 116.38 64.674 116.398 64.6805C116.415 64.6869 116.43 64.6979 116.442 64.7121L117.045 65.4004C117.112 65.4776 117.198 65.5359 117.295 65.5693C117.392 65.6027 117.496 65.61 117.596 65.5905L117.721 65.5706C117.748 65.5664 117.772 65.5523 117.789 65.5311C117.806 65.5098 117.815 65.4829 117.813 65.4557L117.751 64.5617C117.749 64.5413 117.753 64.5209 117.762 64.5027C117.772 64.4845 117.786 64.4694 117.804 64.4592C117.822 64.4489 117.842 64.4439 117.862 64.4447C117.883 64.4455 117.903 64.4522 117.919 64.4638H117.931C117.951 64.479 117.967 64.4985 117.979 64.5208C117.99 64.5432 117.997 64.5678 117.998 64.5929L118.047 65.3024C118.049 65.3274 118.055 65.3519 118.067 65.374C118.078 65.3962 118.095 65.4157 118.115 65.431C118.134 65.4463 118.157 65.4573 118.182 65.463C118.206 65.4687 118.231 65.4691 118.256 65.4642L119.117 65.3223C119.138 65.3188 119.159 65.3215 119.178 65.3301C119.198 65.3387 119.214 65.3528 119.225 65.3706C119.236 65.3883 119.243 65.409 119.243 65.4302C119.243 65.4513 119.236 65.472 119.225 65.4897L119.215 65.5025C119.199 65.5258 119.178 65.5454 119.153 65.5601C119.129 65.5748 119.101 65.5841 119.073 65.5877L118.024 65.7551H118.016L117.455 65.8445C117.358 65.8627 117.258 65.8557 117.164 65.8242C117.07 65.7926 116.986 65.7376 116.919 65.6643L116.21 64.8668C116.197 64.8522 116.188 64.8343 116.184 64.815C116.181 64.7957 116.183 64.7758 116.19 64.7575C116.196 64.7384 116.207 64.7214 116.223 64.7088C116.239 64.6962 116.258 64.6885 116.278 64.6866ZM121.978 69.1408L128.051 67.6906L128.609 66.9229L128.922 66.8619L129.002 69.8248L128.718 70.1696L121.668 72.0795L118.263 72.0909V68.7506L121.3 68.4015L121.386 68.4313L121.978 69.1408ZM119.73 67.0194L116.919 67.3387L116.635 67.6466L116.605 67.6565C116.503 67.3425 116.373 67.0381 116.217 66.747L119.577 66.2461C119.642 66.5008 119.694 66.7589 119.73 67.0194ZM105.153 64.4752L99.8912 64.2623V56.482L101.547 56.736L102.303 58.3352L105.141 58.5949L105.153 64.4752ZM106.704 64.5376L105.696 64.4965V57.0155L104.672 52.0193H99.3392L99.3492 64.2425L99.1023 64.2325L99.1136 52.9828L99.1604 52.9757L99.1136 52.9445V51.3013H105.039V51.3282L105.591 52.0987L106.428 56.6892L107.818 56.2223L115.516 56.0563C114.72 53.3219 114.066 51.4829 114.066 51.4829H106.782L106.024 51.8291L105.709 51.3765L106.769 50.9423L114.691 50.9806L114.417 51.1821L115.855 56.1826L116.193 56.2096C118.335 56.3827 120.682 56.6665 122.74 57.3107C123.286 57.4779 123.818 57.6881 124.33 57.9393L120.336 58.6162L120.349 58.5935C119.026 57.9932 116.71 57.017 112.771 57.3887C114.798 57.6598 117.244 58.2955 119.181 59.215L119.34 62.1651C119.315 62.2145 119.294 62.2658 119.277 62.3183C117.912 59.7755 114.124 58.8304 108.446 58.1692L106.702 58.8205L106.704 64.5376ZM107.9 64.8214H107.874C110.458 60.6212 115.635 60.7532 118.233 63.6862C117.665 63.787 117.182 63.8792 116.495 63.9913C116.477 63.9947 116.459 63.9947 116.441 63.9913L114.88 63.7231C114.845 63.7163 114.808 63.7214 114.776 63.7377C114.744 63.754 114.718 63.7806 114.703 63.8131C114.688 63.8457 114.684 63.8824 114.692 63.9175C114.699 63.9526 114.719 63.9841 114.747 64.0069C115.399 64.5691 115.812 65.3586 115.903 66.2149C115.556 65.7108 115.129 65.2662 114.64 64.898C114.466 64.7367 114.279 64.5897 114.081 64.4581C112.307 63.2704 109.377 62.9824 107.92 64.7959L107.9 64.8214ZM95.271 71.1785C95.2 72.5975 94.6324 73.8887 93.4149 74.4422L90.5103 74.987C90.3392 74.9914 90.1682 74.9757 90.0008 74.9402C89.9469 74.9686 89.893 74.9956 89.8377 75.0211L86.933 75.5674C86.1554 75.5887 85.3991 75.1829 84.7861 74.5003L82.9414 74.8083C82.7704 74.8093 82.5999 74.7903 82.4334 74.7515C82.3795 74.7785 82.3241 74.8054 82.2688 74.8295L79.3542 75.3163C77.6769 75.3276 76.143 73.3651 75.9273 70.933C75.7542 68.972 76.4949 67.3046 77.6585 66.7243L77.0909 66.1056L75.188 66.3227L71.5753 59.2646L71.5171 59.1412L71.5824 59.022L80.9477 41.7103L80.4652 37.7102L80.4539 37.6165L80.5064 37.5342L83.2791 33.1354L83.3798 32.9736L83.5657 33.0147L96.3437 35.8371L96.6772 35.9109L96.5353 36.2188L95.4001 38.5928L96.0968 41.6394L100.572 47.2458L100.696 47.4005L100.587 47.5722L99.5776 49.0962C100.019 48.9031 100.49 48.7856 100.971 48.7485C101.22 48.7258 101.47 48.7159 101.72 48.7187C102.515 48.7187 103.314 48.7102 104.11 48.7045L110.186 48.6648H110.27L110.346 48.6903L112.095 49.2154H112.994L114.615 49.2054L116.601 50.7989L115.548 51.5723L116.611 55.2617C118.73 55.4447 121.01 55.7413 123.034 56.377C124.329 56.7828 125.871 57.4498 126.689 58.5906L126.763 58.6942L127.146 62.3041C127.457 62.8192 127.71 63.3669 127.901 63.9374C128.074 64.4487 128.154 64.987 128.138 65.5266V65.5834L128.407 65.2627L129.876 65.8303L129.988 69.9723L129.995 70.1554L129.305 70.9968L129.164 71.0465L126.787 71.6595C125.708 74.5628 121.331 76.0485 118.283 74.3797C118.321 74.3343 118.357 74.2889 118.392 74.2378C115.968 77.4078 109.196 77.8747 107.731 72.0128L107.022 72.0824C106.512 72.3974 105.461 73.114 104.96 73.4304L96.3239 72.7564L96.3522 71.2892L95.271 71.1785ZM105.671 67.1968L106.775 66.5043L106.758 66.0602L105.671 66.6931L98.1402 66.1425V66.6448L105.671 67.1968ZM104.931 72.4868L106.035 71.8028L106.018 71.3587L104.931 71.983L97.4009 71.3715V71.8752L104.931 72.4868ZM103.764 71.0678L105.068 71.1813C104.091 70.3214 104.426 68.6385 105.29 68.1234L104.116 68.0297C103.779 68.3988 103.567 68.8637 103.508 69.3593C103.419 69.9415 103.509 70.5372 103.768 71.0664L103.764 71.0678ZM100.35 70.7684L102.797 70.9855C102.617 70.4209 102.568 69.8223 102.655 69.2359C102.719 68.7827 102.871 68.3465 103.102 67.9517L100.548 67.7474C100.239 68.1317 100.049 68.5985 100.003 69.0897C99.961 69.6706 100.082 70.2517 100.354 70.767L100.35 70.7684ZM99.1079 70.6605L99.369 70.6833C99.1685 70.1492 99.0886 69.5774 99.1349 69.0088C99.1778 68.5368 99.3205 68.0793 99.5535 67.6665L99.3335 67.6494C98.0153 67.5416 97.95 70.7017 99.1122 70.6591L99.1079 70.6605ZM113.44 71.1799C113.5 71.1708 113.555 71.1393 113.593 71.0918C113.632 71.0442 113.651 70.984 113.647 70.9231C113.645 70.8938 113.638 70.8652 113.624 70.8391C113.611 70.813 113.592 70.79 113.57 70.7714C113.547 70.7529 113.521 70.7392 113.492 70.7314C113.464 70.7235 113.435 70.7216 113.406 70.7258C113.345 70.7352 113.291 70.7668 113.252 70.8142C113.214 70.8617 113.195 70.9218 113.199 70.9827C113.2 71.0127 113.209 71.042 113.223 71.0686C113.237 71.0952 113.256 71.1185 113.28 71.137C113.304 71.1555 113.331 71.1688 113.36 71.176C113.39 71.1831 113.42 71.184 113.45 71.1785L113.44 71.1799ZM113.204 72.4811C113.265 72.4727 113.32 72.4416 113.359 72.3943C113.397 72.3469 113.417 72.2867 113.413 72.2257C113.411 72.1964 113.403 72.1679 113.39 72.1418C113.377 72.1156 113.358 72.0926 113.336 72.074C113.313 72.0555 113.287 72.0419 113.258 72.034C113.23 72.0262 113.201 72.0243 113.172 72.0285C113.111 72.0369 113.056 72.0679 113.017 72.1153C112.979 72.1626 112.959 72.2228 112.963 72.2839C112.965 72.314 112.973 72.3434 112.987 72.3701C113.001 72.3969 113.02 72.4203 113.044 72.4388C113.068 72.4574 113.095 72.4706 113.125 72.4777C113.154 72.4847 113.184 72.4854 113.214 72.4797L113.204 72.4811ZM113.041 69.961C113.101 69.9522 113.156 69.9211 113.195 69.8738C113.234 69.8266 113.253 69.7665 113.25 69.7056C113.248 69.6764 113.24 69.6479 113.226 69.6219C113.213 69.5959 113.195 69.5729 113.172 69.5544C113.149 69.5359 113.123 69.5223 113.095 69.5144C113.067 69.5064 113.037 69.5044 113.008 69.5083C112.948 69.5174 112.893 69.5488 112.854 69.5963C112.816 69.6438 112.796 69.7041 112.8 69.7652C112.802 69.7952 112.81 69.8244 112.824 69.851C112.838 69.8775 112.858 69.9008 112.881 69.9192C112.905 69.9376 112.933 69.9507 112.962 69.9577C112.991 69.9646 113.021 69.9653 113.051 69.9596L113.041 69.961ZM112.459 73.2332C112.52 73.2241 112.575 73.1927 112.613 73.1452C112.652 73.0977 112.671 73.0374 112.668 72.9763C112.666 72.9472 112.658 72.9188 112.645 72.8928C112.631 72.8669 112.613 72.844 112.59 72.8256C112.567 72.8072 112.541 72.7937 112.513 72.786C112.485 72.7782 112.455 72.7763 112.427 72.7805C112.366 72.789 112.311 72.8201 112.273 72.8675C112.234 72.9148 112.215 72.9751 112.219 73.0359C112.221 73.0659 112.229 73.0952 112.243 73.1218C112.257 73.1484 112.276 73.1717 112.3 73.1903C112.324 73.2088 112.351 73.2221 112.38 73.2292C112.409 73.2364 112.44 73.2372 112.469 73.2318L112.459 73.2332ZM112.236 69.0103C112.297 69.0012 112.352 68.9698 112.39 68.9223C112.429 68.8748 112.449 68.8145 112.445 68.7534C112.443 68.7243 112.435 68.6959 112.422 68.6699C112.409 68.644 112.39 68.6211 112.367 68.6027C112.345 68.5843 112.318 68.5708 112.29 68.563C112.262 68.5553 112.233 68.5534 112.204 68.5576C112.143 68.5661 112.088 68.5971 112.05 68.6445C112.011 68.6919 111.992 68.7521 111.997 68.813C111.998 68.8422 112.006 68.8708 112.019 68.8969C112.032 68.923 112.05 68.946 112.073 68.9646C112.096 68.9832 112.122 68.9968 112.15 69.0047C112.178 69.0125 112.207 69.0144 112.236 69.0103ZM110.817 68.7846C110.6 68.8138 110.392 68.8908 110.209 69.0103C110.352 68.8182 110.533 68.6565 110.739 68.5347C110.946 68.4129 111.174 68.3334 111.412 68.3008C112.561 68.1475 113.682 69.1522 113.899 70.5541C114.117 71.9561 113.373 73.2076 112.224 73.3609C111.778 73.4137 111.328 73.3071 110.954 73.0601C111.135 73.1033 111.323 73.1134 111.508 73.0899C113.829 72.7763 113.142 68.4767 110.817 68.7846ZM109.18 69.8304C109.108 70.2531 109.108 70.6849 109.18 71.1075C109.244 71.507 109.369 71.8942 109.55 72.2555C109.836 72.8477 110.291 73.3416 110.859 73.6745C111.306 73.9284 111.824 74.0304 112.334 73.9654C112.76 73.9075 113.16 73.7287 113.487 73.4503C113.102 73.9084 112.561 74.2073 111.968 74.2889C111.283 74.3681 110.595 74.1721 110.054 73.744C109.665 73.4458 109.341 73.0717 109.102 72.6443C108.858 72.2129 108.694 71.7415 108.617 71.2523C108.468 70.4087 108.61 69.5396 109.02 68.7875C109.205 68.4387 109.469 68.1381 109.791 67.9097C110.113 67.6813 110.484 67.5314 110.874 67.4721C111.158 67.4356 111.447 67.45 111.726 67.5146C111.584 67.5067 111.441 67.5119 111.3 67.5303C110.203 67.6792 109.398 68.6186 109.177 69.8304H109.18ZM116.19 70.9202C115.994 68.2014 114.061 65.9225 111.816 65.6884C111.94 65.6751 112.065 65.6704 112.19 65.6742C114.444 65.7466 116.43 67.9957 116.625 70.696C116.759 72.5407 116.022 74.12 114.823 74.9133C115.763 74.0108 116.306 72.5663 116.187 70.9202H116.19ZM111.081 70.3526C110.977 70.4253 110.896 70.5273 110.85 70.6457C110.803 70.7641 110.792 70.8937 110.819 71.0181C110.833 71.1443 110.882 71.2641 110.96 71.3643C111.038 71.4644 111.143 71.5411 111.262 71.5857C111.209 71.617 111.152 71.6373 111.091 71.6453C110.795 71.6836 110.507 71.424 110.448 71.0635C110.39 70.7031 110.59 70.3782 110.874 70.3384C110.941 70.3269 111.01 70.3298 111.076 70.347L111.081 70.3526ZM109.989 71.1189C109.877 70.4193 110.253 69.7893 110.829 69.7141C111.405 69.6389 111.964 70.1398 112.075 70.8422C112.185 71.5446 111.811 72.1718 111.235 72.2484C110.659 72.325 110.097 71.8128 109.983 71.1132L109.989 71.1189ZM78.4872 70.8848C78.5922 71.6907 78.9469 72.3548 79.3797 72.6571C79.2293 72.8315 79.0214 72.9463 78.7937 72.9806L78.7085 72.9877H78.6603C78.1111 72.7039 77.6542 71.966 77.5251 71.055C77.396 70.144 77.64 69.3139 78.0927 68.8953C78.1356 68.8835 78.1792 68.8745 78.2232 68.8684C78.4383 68.8426 78.6557 68.8901 78.8405 69.0032C78.5255 69.4133 78.3751 70.1142 78.4758 70.8791L78.4872 70.8848ZM79.6791 72.176C79.3017 71.8922 79.0051 71.38 78.9157 70.757C78.8235 70.2505 78.9151 69.7277 79.174 69.2827C79.3147 69.4374 79.4336 69.6108 79.5273 69.7978C79.4307 69.9253 79.362 70.0716 79.3256 70.2273C79.2892 70.383 79.2859 70.5446 79.3159 70.7017C79.3726 71.0976 79.5784 71.4112 79.8295 71.5531C79.8027 71.765 79.7483 71.9725 79.6678 72.1704L79.6791 72.176ZM80.5688 74.0463C79.821 74.7558 78.8206 74.7103 78.0629 74.1882C78.3799 74.3266 78.7309 74.3679 79.0714 74.3067C79.4119 74.2456 79.7266 74.0848 79.9757 73.8448C80.6696 73.1863 81.0357 71.9561 80.8441 70.6151C80.6185 69.0429 79.6976 67.8169 78.6475 67.5601C78.3902 67.4985 78.1221 67.4977 77.8645 67.5578C77.6068 67.6179 77.3668 67.7372 77.1633 67.9063C77.667 67.2947 78.3864 67.0137 79.1186 67.1968C80.2637 67.4806 81.2698 68.8144 81.5153 70.53C81.714 71.9788 81.3138 73.3226 80.5575 74.0406L80.5688 74.0463ZM83.8467 68.3958C83.6721 68.0942 83.453 67.8205 83.1968 67.5842C82.9607 67.2188 82.6642 66.8964 82.3199 66.6306C82.4505 66.6336 82.5805 66.6512 82.7072 66.6831C83.2677 66.825 83.7956 67.211 84.217 67.7757C84.0692 67.967 83.9413 68.1729 83.8353 68.3902L83.8467 68.3958ZM84.1305 73.5567C83.9122 73.762 83.6488 73.9132 83.3614 73.998C83.5846 73.7129 83.7626 73.3951 83.8893 73.0558C83.9588 73.2232 84.0397 73.3978 84.1262 73.551L84.1305 73.5567ZM85.9752 71.1544C86.0958 71.9575 86.4647 72.6159 86.9032 72.9082C86.7561 73.0851 86.5509 73.2038 86.3243 73.2431L86.2377 73.2516H86.1894C85.636 72.9778 85.1649 72.2498 85.0202 71.3431C84.8755 70.4363 85.0997 69.5991 85.5438 69.172C85.5865 69.159 85.6302 69.149 85.6744 69.1422C85.8884 69.1124 86.1063 69.1553 86.293 69.2643C85.9851 69.6829 85.8531 70.3867 85.9695 71.1487L85.9752 71.1544ZM87.1927 72.4201C86.8095 72.1519 86.503 71.6382 86.4009 71.0167C86.3024 70.511 86.3874 69.9868 86.6407 69.5381C86.7857 69.6893 86.9085 69.8603 87.0054 70.0461C86.9099 70.1754 86.8429 70.3234 86.8089 70.4804C86.7749 70.6375 86.7747 70.8 86.8081 70.9571C86.8268 71.1279 86.8843 71.2922 86.9763 71.4373C87.0683 71.5824 87.1923 71.7046 87.3388 71.7943C87.3159 72.0068 87.2648 72.2154 87.187 72.4144L87.1927 72.4201ZM88.1136 74.2676C87.3814 74.9899 86.3796 74.9672 85.6119 74.4563C85.9317 74.5881 86.2834 74.6221 86.6226 74.5542C86.9617 74.4862 87.2732 74.3194 87.5176 74.0746C88.1973 73.4035 88.5393 72.1661 88.3193 70.8294C88.0625 69.2685 87.1175 68.0553 86.0617 67.8197C85.8033 67.7631 85.5353 67.7675 85.2789 67.8326C85.0225 67.8976 84.7848 68.0215 84.5846 68.1943C85.077 67.5728 85.7907 67.2777 86.5257 67.4423C87.6765 67.6991 88.7096 69.0159 88.9891 70.7258C89.2289 72.1845 88.8557 73.5397 88.1136 74.2676ZM91.6909 73.6816C91.4733 73.9008 91.2061 74.0644 90.9118 74.1584C91.1825 73.7939 91.3836 73.3826 91.505 72.9451C91.9023 72.247 92.0726 71.275 91.8966 70.249C91.7235 69.1905 91.2354 68.2951 90.611 67.7545C90.3681 67.3936 90.0653 67.0768 89.7156 66.8179C89.846 66.8187 89.9758 66.8334 90.103 66.8619C91.2538 67.1187 92.2868 68.4356 92.5664 70.1455C92.8062 71.6042 92.433 72.9551 91.6909 73.6816ZM126.165 65.5224L121.656 66.5554C121.61 66.5669 121.563 66.5681 121.517 66.5587C121.471 66.5494 121.428 66.5298 121.39 66.5015C121.352 66.4746 121.321 66.4397 121.298 66.3993C121.275 66.3588 121.261 66.3138 121.257 66.2674L120.689 60.1912C120.681 60.1093 120.705 60.0275 120.755 59.9622C120.805 59.8969 120.878 59.853 120.959 59.8393L125.771 59.0021L125.813 59.0546L126.152 62.2545L126.415 65.1691C126.426 65.2493 126.406 65.3307 126.36 65.3971C126.314 65.4636 126.244 65.5103 126.165 65.5281V65.5224ZM124.907 64.4383L121.952 65.0059C121.872 65.0208 121.801 65.0653 121.752 65.1305C121.704 65.1957 121.681 65.2769 121.69 65.3578L121.715 65.626C121.72 65.6712 121.734 65.7149 121.757 65.7543C121.78 65.7937 121.811 65.8279 121.847 65.8546C121.884 65.8814 121.926 65.9001 121.971 65.9096C122.015 65.9191 122.061 65.9192 122.105 65.9098L125.642 65.1875C125.721 65.1714 125.791 65.1267 125.839 65.062C125.887 64.9973 125.909 64.9172 125.901 64.837L125.7 62.6319L125.442 60.2012C125.436 60.157 125.422 60.1144 125.4 60.0759C125.378 60.0375 125.348 60.0039 125.313 59.9773C125.277 59.9508 125.236 59.9317 125.193 59.9214C125.15 59.9111 125.105 59.9097 125.061 59.9174L121.525 60.529C121.444 60.5432 121.372 60.5875 121.322 60.6531C121.272 60.7186 121.249 60.8004 121.257 60.8823L121.273 61.0497C121.276 61.0952 121.289 61.1393 121.312 61.179C121.334 61.2188 121.365 61.2531 121.402 61.2796C121.438 61.3075 121.48 61.3273 121.524 61.3376C121.569 61.3479 121.615 61.3484 121.66 61.3392L124.414 60.8042C124.481 60.7909 124.55 60.7989 124.612 60.8272C124.674 60.8555 124.725 60.9026 124.759 60.9618L124.78 60.9972C124.807 61.0422 124.822 61.093 124.825 61.1452C124.827 61.1974 124.817 61.2494 124.794 61.2966C124.774 61.3446 124.741 61.3866 124.7 61.4188C124.659 61.451 124.61 61.4724 124.559 61.4811L121.666 62.0487C121.586 62.0642 121.515 62.1088 121.466 62.1738C121.417 62.2388 121.394 62.3197 121.402 62.4006L121.417 62.5539C121.421 62.5993 121.434 62.6434 121.456 62.6832C121.479 62.7229 121.509 62.7572 121.546 62.7837C121.583 62.8113 121.624 62.8309 121.668 62.8412C121.713 62.8514 121.759 62.8522 121.803 62.8433L124.602 62.3084C124.668 62.2944 124.737 62.3022 124.799 62.3306C124.861 62.3589 124.912 62.4063 124.945 62.4659L124.966 62.4999C124.992 62.5453 125.006 62.5961 125.009 62.6482C125.011 62.7003 125.001 62.7522 124.979 62.7996C124.957 62.847 124.924 62.8885 124.884 62.9208C124.843 62.9531 124.795 62.9752 124.743 62.9852L121.81 63.5457C121.73 63.5609 121.659 63.6054 121.61 63.6705C121.561 63.7356 121.539 63.8166 121.546 63.8976L121.559 64.0254C121.563 64.0707 121.576 64.1148 121.598 64.1545C121.621 64.1942 121.651 64.2286 121.688 64.2552C121.724 64.2827 121.766 64.3022 121.81 64.3125C121.855 64.3228 121.901 64.3236 121.945 64.3148L124.765 63.7756C124.831 63.7617 124.901 63.7695 124.962 63.7978C125.024 63.8262 125.075 63.8736 125.108 63.9331L125.129 63.9686C125.155 64.0139 125.169 64.0646 125.171 64.1165C125.173 64.1684 125.163 64.2201 125.141 64.2673C125.12 64.3145 125.087 64.3559 125.046 64.3881C125.005 64.4202 124.958 64.4423 124.907 64.4525V64.4383ZM95.6243 60.5417L94.4409 58.4516L97.6861 53.2013L98.0934 53.1403C98.0565 55.6604 97.9841 58.1834 97.9046 60.7021L95.6243 60.5417ZM97.1086 63.164L96.602 62.2672L98.3842 62.3878L98.4013 63.2875L97.1086 63.164ZM97.2022 63.9203L97.2377 65.765L86.9188 64.881L83.4423 64.5816L84.464 62.8561C88.7209 63.2009 92.9509 63.5699 97.2022 63.9203ZM75.1809 64.9718L75.5598 65.6941L87.4963 46.0666L86.9784 45.3812L75.1809 64.9718ZM72.614 60.0919L74.8844 64.3985L76.1359 62.3297L73.3561 58.7297L72.614 60.0919ZM72.1244 59.1582L72.316 59.5229L83.079 39.7408C83.045 39.457 82.9045 38.4225 82.483 36.3749H82.4518L83.7545 34.4493L95.5477 37.012L95.8897 36.3025L83.6353 33.5809L81.0186 37.7414L81.4968 41.7231L81.5068 41.8082L81.467 41.8834L72.1244 59.1582ZM91.7505 59.0163L93.9428 62.8873L92.3819 62.7596L90.6479 59.6946C91.2581 58.6374 92.2003 58.1663 93.3937 58.1337L96.1862 63.0661L95.3802 62.9994L92.8715 58.5665C92.6164 58.6054 92.368 58.6799 92.1336 58.7879L94.4763 62.9242L94.2507 62.9058L91.9676 58.873C91.8925 58.9166 91.82 58.9644 91.7505 59.0163ZM91.4 58.1351C91.1289 58.3014 90.8828 58.5055 90.6692 58.741L89.2687 56.2692C89.7085 55.5072 90.3882 55.1666 91.2552 55.1481L92.6742 57.664C92.5098 57.6928 92.3472 57.7316 92.1875 57.7804L90.8735 55.4603C90.6903 55.4892 90.5118 55.5426 90.3428 55.6193L91.6795 57.9819L91.5589 58.0429L90.2222 55.6817C90.1688 55.7113 90.1172 55.744 90.0675 55.7796L91.4 58.1351ZM85.619 53.0509H88.6599L87.1955 51.7738L85.243 51.849L84.6186 51.8731L78.5595 61.6968L78.8306 62.8618L79.296 64.8682L79.831 64.7434L79.3528 62.263L85.199 52.6649L85.619 53.0509ZM97.8223 52.225L97.3966 51.8362L94.0478 57.3334L93.9442 57.1503L93.5015 57.1589L93.283 56.7743L96.8163 51.0444L96.8546 51.0558L97.4349 51.0302L98.0806 51.0019V52.225H97.8223ZM123.502 66.9456L123.865 67.5388L125.163 67.2067L124.807 66.6235L123.502 66.9456ZM123.242 67.8282L122.709 66.957L125.381 66.3028L125.906 67.1542L123.242 67.8282ZM126.311 67.0535L125.788 66.2021L127.164 65.8629L127.278 66.8137L126.311 67.0535ZM120.955 67.3898L122.303 67.0577L122.836 67.9304L121.873 68.1731L120.955 67.3898ZM99.2442 50.7067H105.508L106.529 50.3193L114.493 50.3562L114.271 50.1774L112.994 50.1859L111.859 50.193L110.108 49.634L104.036 49.6737C103.263 49.6737 102.489 49.6879 101.716 49.6879C101.498 49.6879 101.279 49.6879 101.063 49.7134C100.544 49.7631 99.9395 49.8979 99.5478 50.2668C99.4171 50.3913 99.3128 50.5409 99.2413 50.7067H99.2442ZM90.1726 46.0595L86.4321 40.727L84.0808 40.3438L87.9561 45.824L90.1726 46.0595Z" fill="#2D2D2D"/>
<path fill-rule="evenodd" clip-rule="evenodd" d="M60.6864 63.0034L59.784 62.9665V58.3562C59.7839 58.0712 59.6712 57.7978 59.4704 57.5956C59.2713 57.3917 59.0028 57.2701 58.7183 57.255L54.7451 57.0464V50.0224C54.7456 49.8349 54.7082 49.6492 54.635 49.4766C54.5619 49.3039 54.4545 49.1479 54.3194 49.0178C54.035 48.7484 53.6769 48.5696 53.2907 48.5041L48.4661 47.5974L48.4008 47.586L48.3341 47.5946L41.523 48.5013C41.1378 48.547 40.7784 48.718 40.4999 48.988C40.4045 49.0829 40.3224 49.1903 40.2558 49.3073C40.1224 48.8806 39.9872 48.4549 39.85 48.0302C39.5733 47.166 39.2824 46.2763 38.9546 45.4334C38.5236 44.3273 37.8773 43.3178 37.0532 42.4635C36.2874 41.6861 35.4098 41.0275 34.4493 40.5095L25.5281 33.0982C25.5282 33.0212 25.5113 32.9453 25.4787 32.8756C25.4461 32.806 25.3985 32.7443 25.3394 32.6952L25.2997 32.6625C25.3635 32.3617 25.3309 32.0779 25.1024 31.8878L24.3688 31.2904L24.339 31.2762C23.9843 31.1031 23.5515 31.2989 23.1868 31.5713L19.0717 28.1856C19.3002 27.2874 19.1043 26.453 18.2884 26.0302L17.8741 25.8613L17.1192 25.9933L13.461 26.6347L11.947 34.4093C11.9385 34.4221 11.9299 34.4334 11.9228 34.4462C11.2992 35.4408 10.6184 36.3983 9.88375 37.314C9.36724 37.9568 8.75566 38.733 8.76559 39.6014C8.7741 40.2825 9.15155 40.8458 9.61698 41.3184L7.37356 46.7361C7.30017 46.7595 7.23286 46.7989 7.17645 46.8514C7.12003 46.9039 7.0759 46.9682 7.04719 47.0397L7.02875 47.088C6.72366 47.1178 6.46115 47.2299 6.35189 47.5137L6.00849 48.3949V48.4261C5.95315 48.8177 6.271 49.1696 6.6442 49.4321L4.81938 54.0623C3.35498 54.4256 1.85653 55.0201 1.58124 56.0858C1.34001 57.0166 2.10201 57.817 2.78313 58.3562L3.28119 59.6787L2.78597 59.6971C2.30067 62.0881 1.78416 64.6111 1.96579 67.0574C2.07363 68.502 2.46953 69.938 3.59479 70.927C4.50294 71.7259 5.68071 72.0537 6.85847 72.2041C7.93628 72.3173 9.0211 72.3491 10.1037 72.2992C11.2602 72.2651 12.9999 72.048 14.0627 72.1133C16.4608 71.6422 19.5329 69.447 21.5507 68.0493L22.3411 67.503L21.7195 66.7679C21.1765 66.1247 20.6335 65.4804 20.0905 64.8353L19.7755 64.4578L19.2987 64.5245C18.8603 64.5855 18.4232 64.648 17.9848 64.7118C16.9376 63.1311 15.8913 61.5503 14.846 59.9696L14.7041 59.7539L14.4444 59.7425C13.8101 59.7141 13.1786 59.6432 12.5458 59.6006C12.632 59.355 12.6799 59.0975 12.6877 58.8372L18.8007 38.8138C23.8495 41.4219 27.9385 43.8153 31.0679 45.9939L32.809 53.499C32.7366 53.5373 32.6671 53.5799 32.6004 53.6238C32.379 53.7757 32.1463 54.0056 32.1434 54.2922V54.322L32.3293 55.1493C32.3875 55.4018 32.5904 55.5423 32.8458 55.6133L32.8572 55.67C32.8755 55.7433 32.9106 55.8112 32.9599 55.8684C33.0092 55.9256 33.0712 55.9704 33.141 55.9992L33.4248 57.2224C33.2798 57.2967 33.1469 57.3924 33.0303 57.5062C32.8807 57.6549 32.762 57.8318 32.6811 58.0266C32.6003 58.2215 32.5588 58.4304 32.5592 58.6414V61.1601H31.7149C31.305 61.1612 30.9123 61.3245 30.6225 61.6144C30.3327 61.9042 30.1693 62.2969 30.1682 62.7068V64.8353C30.1693 65.2451 30.3327 65.6379 30.6225 65.9277C30.9123 66.2175 31.305 66.3809 31.7149 66.382H34.6182L28.3746 66.6331C26.2575 66.7183 23.9871 68.3118 23.9757 70.5808C23.7374 72.783 25.3536 74.6334 27.5786 74.6561L40.4687 73.9651C40.9054 74.5011 41.4676 74.9212 42.1054 75.1883C42.7432 75.4553 43.437 75.5611 44.1254 75.4962C48.6662 75.631 50.4044 75.4621 54.8672 74.9995C55.9757 74.8847 56.9932 74.3343 57.6958 73.4693C58.3985 72.6043 58.7288 71.4956 58.614 70.3871C58.4992 69.2786 57.9488 68.2611 57.0838 67.5584C56.2188 66.8557 55.1101 66.5255 54.0016 66.6402L53.881 66.653L48.4178 66.9013V66.8942L48.134 66.907V66.8701C48.1342 66.7046 48.1034 66.5405 48.0432 66.3862H58.6942C60.9716 66.382 60.6864 64.5997 60.6864 63.0034ZM11.7937 38.1143H11.8036H12.0435C12.1172 38.1158 12.1905 38.1258 12.262 38.1441C12.3686 38.1805 12.4633 38.2452 12.5358 38.3314C12.4754 38.2908 12.4055 38.2663 12.3329 38.2604H12.2705H12.0364C11.7696 38.3016 11.5624 38.601 11.5624 38.9699C11.5624 39.3389 11.7696 39.6312 12.0364 39.6794H12.2606H12.3287C12.4022 39.674 12.4731 39.6496 12.5344 39.6085C12.4828 39.6704 12.4193 39.7212 12.3476 39.758C12.276 39.7949 12.1976 39.8169 12.1172 39.8227H12.0307H11.8036H11.7937C11.4007 39.7617 11.1963 39.3403 11.1963 38.9714C11.1963 38.6024 11.4007 38.1753 11.7937 38.1143ZM12.34 39.4552C12.1343 39.4552 11.9654 39.2339 11.9654 38.96C11.9654 38.6861 12.1343 38.4662 12.34 38.4662C12.5458 38.4662 12.7146 38.6876 12.7146 38.96C12.7146 39.2324 12.5515 39.4552 12.34 39.4552ZM34.5969 55.1592C34.6437 55.1379 34.6877 55.1166 34.7288 55.0939L34.7473 55.1677C34.787 55.3366 34.4961 55.5494 34.0974 55.6416C33.9752 55.6713 33.8499 55.6861 33.7242 55.6856C33.8006 55.6784 33.8765 55.6661 33.9512 55.6487C34.35 55.5551 34.6409 55.3422 34.6011 55.1734L34.5969 55.1592Z" fill="white"/>
<path fill-rule="evenodd" clip-rule="evenodd" d="M35.9674 66.8616L35.9489 67.022C35.9489 67.039 35.9489 67.056 35.9489 67.073V67.3568C35.9497 67.477 35.9977 67.5921 36.0827 67.6771C36.1677 67.7621 36.2828 67.8102 36.403 67.8109H40.7806C40.8799 67.757 40.9821 67.7087 41.0842 67.669C41.4759 67.4992 41.8913 67.3905 42.3159 67.3469H42.3301L46.3132 67.1539V67.0702C46.3132 67.0065 46.3007 66.9435 46.2762 66.8847C46.2518 66.8259 46.2161 66.7725 46.171 66.7275C46.1259 66.6826 46.0724 66.647 46.0135 66.6227C45.9547 66.5985 45.8916 66.5861 45.8279 66.5863H36.4002C36.3368 66.5864 36.2742 66.599 36.2157 66.6233C36.1573 66.6477 36.1042 66.6833 36.0596 66.7282C36.0222 66.7655 35.991 66.8087 35.9674 66.8559V66.8616ZM47.42 62.5408L47.8173 49.9004C47.8315 49.4747 48.1494 49.2009 48.5538 49.286L52.0119 50.0111C52.2183 50.0643 52.4017 50.1832 52.5346 50.3498C52.6674 50.5165 52.7425 50.7218 52.7483 50.9349V56.8946C48.9838 59.4559 50.0977 62.5521 47.42 62.5408ZM49.7614 62.8047C50.7121 61.3517 50.678 59.6602 52.7881 58.0511L57.702 58.3165C57.7732 58.3197 57.8406 58.3496 57.8908 58.4002C57.9347 58.446 57.9596 58.5069 57.9603 58.5705V63.141L49.7614 62.8047ZM39.1416 64.8835H46.8907C47.5803 64.64 48.2272 64.2895 48.8078 63.8448L58.8557 64.2578C58.8202 65.2042 59.0061 65.742 57.7205 65.742H39.3233C39.2657 65.7348 39.2125 65.7077 39.1729 65.6654C39.1338 65.6283 39.1109 65.5773 39.109 65.5235C39.109 65.5079 39.109 65.5235 39.109 65.515L39.1416 64.8835ZM48.1366 61.7149C48.1924 61.6856 48.2451 61.6509 48.2941 61.6114C48.5086 61.4072 48.6828 61.1646 48.8078 60.8962C48.8419 60.8323 48.8759 60.7671 48.9085 60.7004C48.9354 60.6491 48.9499 60.5922 48.9511 60.5343L49.2349 51.3719C49.2366 51.314 49.2509 51.2572 49.277 51.2055C49.303 51.1538 49.34 51.1084 49.3855 51.0725C49.4309 51.0367 49.4837 51.0112 49.5401 50.998C49.5964 50.9848 49.655 50.984 49.7117 50.9959L51.5904 51.3889C51.6481 51.4009 51.7077 51.4 51.765 51.3861C51.8222 51.3722 51.8757 51.3458 51.9214 51.3087C51.9672 51.2716 52.0041 51.2248 52.0296 51.1717C52.0551 51.1186 52.0684 51.0605 52.0686 51.0016V50.9349C52.0625 50.8779 52.0409 50.8237 52.0061 50.7782C51.9713 50.7327 51.9247 50.6975 51.8714 50.6766L48.9596 50.065C48.9029 50.0532 48.8442 50.0539 48.7878 50.0672C48.7314 50.0804 48.6785 50.1058 48.6329 50.1417C48.5874 50.1775 48.5502 50.2229 48.524 50.2746C48.4979 50.3263 48.4833 50.3831 48.4814 50.4411L48.1366 61.7149ZM46.0081 50.1289L41.2999 50.6326C41.2051 50.6419 41.1168 50.6852 41.0516 50.7546C40.9863 50.8241 40.9485 50.9149 40.9452 51.0101L40.4854 61.7121C40.484 61.745 40.4869 61.7779 40.4939 61.81L40.545 62.0484H41.0715C41.1736 62.0485 41.2718 62.0091 41.3456 61.9385C41.4193 61.8679 41.463 61.7715 41.4674 61.6695L41.8931 51.6515C41.8967 51.5563 41.9346 51.4657 41.9998 51.3963C42.065 51.327 42.1531 51.2835 42.2478 51.274L45.6321 50.9122C45.7267 50.9026 45.8146 50.8591 45.8796 50.7897C45.9445 50.7203 45.9821 50.6297 45.9854 50.5347L46.0081 50.1289ZM18.9054 34.0489C20.7657 34.5512 22.6218 35.3061 24.3047 36.0724L23.1099 35.0791C23.0292 35.0989 22.9449 35.0997 22.8639 35.0812C22.7828 35.0627 22.7072 35.0255 22.643 34.9727L22.5934 34.9315C22.3195 35.0393 22.0456 35.0507 21.8243 34.8662L21.1034 34.2575L21.0807 34.2334C20.8906 33.9765 20.9388 33.6161 21.0382 33.3337C21.067 33.2482 21.1006 33.1643 21.1389 33.0826L17.7603 30.2701C17.8738 31.5515 18.4811 33.0627 18.9026 34.0517L18.9054 34.0489ZM33.399 61.4212L32.6639 58.3136C32.5939 58.3834 32.5385 58.4663 32.5007 58.5577C32.463 58.649 32.4437 58.7469 32.444 58.8457V61.4155L33.399 61.4212ZM34.4192 65.7392L33.5877 62.2215H30.7497C30.5652 62.2223 30.3884 62.2959 30.2579 62.4264C30.1274 62.5569 30.0538 62.7337 30.053 62.9182V65.0467C30.0538 65.2313 30.1274 65.4081 30.2579 65.5386C30.3884 65.6691 30.5652 65.7427 30.7497 65.7434L34.4192 65.7392ZM35.685 62.2215L36.4229 65.3901C36.4846 65.2846 36.5174 65.1647 36.5179 65.0425V63.124L36.6456 62.9991C36.718 62.9285 36.7754 62.844 36.8145 62.7508C36.852 62.6609 36.8713 62.5644 36.8713 62.467V62.23L35.685 62.2215ZM34.7229 58.0979L35.4977 61.4212H36.8713V58.8543C36.8716 58.7554 36.8523 58.6575 36.8146 58.5662C36.7768 58.4748 36.7213 58.3919 36.6513 58.3221C36.5106 58.1813 36.3197 58.1022 36.1206 58.1022L34.7229 58.0979ZM38.0433 55.1479C38.0859 55.3352 37.7595 55.5735 37.3211 55.6757C37.1844 55.708 37.0444 55.7242 36.9039 55.724C36.9894 55.7155 37.0743 55.7013 37.1579 55.6814C37.6006 55.5778 37.9241 55.3423 37.8802 55.1549V55.1379C37.9312 55.1152 37.9809 55.0911 38.0221 55.0655L38.0433 55.1479ZM39.8015 61.8171L39.9434 62.4826C40.006 62.5598 40.0852 62.6219 40.1751 62.6644C40.265 62.7069 40.3633 62.7287 40.4627 62.7281H45.4448C45.6353 62.7262 45.818 62.6518 45.9556 62.52C46.0932 62.3882 46.1754 62.2089 46.1855 62.0186L46.6793 50.1516C46.6949 49.7642 46.3955 49.4052 46.011 49.4421L41.0175 49.9841C40.6316 50.0253 40.2924 50.3006 40.2754 50.6936L40.1988 52.4872L40.1562 53.4976L39.8015 61.8171ZM38.5244 60.7727L38.6294 58.85L37.9383 55.9439C37.774 56.0208 37.6024 56.0812 37.4261 56.1241L38.5244 60.7727ZM31.9374 47.5378L33.3238 53.3557C33.7339 53.3557 34.1511 53.4536 34.3171 53.77L34.3298 53.7956L34.5313 54.6214C34.5924 54.8825 34.4618 55.1039 34.2475 55.2841L34.2589 55.3295C34.2745 55.3967 34.2752 55.4665 34.2607 55.534C34.2462 55.6014 34.217 55.6648 34.1752 55.7197L34.5328 57.2508H36.1263H36.21C36.0312 56.6662 35.842 56.0891 35.6424 55.5196C35.5716 55.4763 35.51 55.4194 35.4613 55.3522C35.4126 55.285 35.3777 55.2088 35.3586 55.128L35.1514 54.2071V54.1673C34.2906 51.894 33.2417 49.6964 32.0155 47.5974L31.9374 47.5378ZM35.2309 44.5735C35.5147 44.5735 35.7403 44.8744 35.7403 45.2476C35.7406 45.2927 35.7373 45.3378 35.7304 45.3824V45.4036V45.4136V45.4434V45.4647V45.4732V45.4831V45.493V45.5087V45.5186V45.5271V45.537V45.547V45.5541V45.5626V45.5768V45.5853V45.5938C35.7262 45.6026 35.7215 45.6111 35.7162 45.6193V45.6278L35.7077 45.6392C35.7019 45.6457 35.6957 45.6519 35.6892 45.6576H35.6821H35.675H35.6679H35.6609C35.6034 45.6874 35.5397 45.703 35.475 45.7031C35.4181 45.7036 35.3619 45.6915 35.3104 45.6676H35.3004H35.2919H35.2834H35.2735H35.265H35.2564L35.2479 45.6605L35.2323 45.6491L35.2238 45.642H35.2153V45.6349L35.2068 45.6264V45.6193L35.1926 45.6009V45.5924V45.5839V45.5768V45.5697V45.5583V45.5484V45.5399V45.5299V45.5186V45.5087V45.5016V45.4945V45.4845V45.4732V45.4632V45.4561V45.4476V45.4377V45.4249V45.415V45.3994V45.388V45.3753V45.3256V45.2589V45.1851V45.1766V45.1667V45.1553C34.7754 44.8006 34.9797 44.5778 35.2224 44.5778L35.2309 44.5735ZM35.4764 46.1344C35.3926 46.2279 35.2894 46.3019 35.1741 46.3515L36.9905 54.1418C36.8573 54.175 36.7222 54.2001 36.586 54.217C36.1603 54.2681 35.8382 54.217 35.6779 54.1148C35.9617 54.5405 37.4275 54.4398 37.9852 53.9488L38.0831 54.3929C38.1966 54.8811 36.6726 55.3678 36.1717 55.1805C36.5094 55.4841 38.4619 54.9705 38.32 54.3631L38.1427 53.6352C38.0819 53.5386 37.9856 53.4698 37.8745 53.4436L37.9341 53.7133C37.7488 53.8592 37.5387 53.9707 37.314 54.0425L35.4764 46.1344ZM19.412 37.3154C21.4397 38.4506 22.3834 39.0877 22.3834 39.0877C22.2307 39.0943 22.0781 39.0721 21.9335 39.0224L18.9182 37.6035H18.9097L18.8458 37.6148C18.8217 37.6148 18.7962 37.6148 18.7706 37.6233L18.5422 37.6531C22.5636 40.3024 29.9735 44.3749 33.0542 46.3558C33.4288 46.597 34.1425 47.7748 34.957 49.2988L34.2731 46.3473C33.8658 46.1727 33.6558 45.6818 33.6558 45.2518C33.6558 44.7552 33.9396 44.1805 34.4703 44.0982H34.4845H34.8109C34.9114 44.099 35.0114 44.1119 35.1089 44.1365C35.2537 44.187 35.3825 44.2751 35.4821 44.3919C35.3969 44.3367 35.2994 44.3035 35.1983 44.2954H35.1131H34.7939C34.5101 44.3394 34.2717 44.6005 34.1851 44.951V44.9638V44.985V45.0063V45.0489V45.0702V45.09V45.1113V45.1326V45.1596V45.1823V45.205V45.2504C34.1851 45.7456 34.4689 46.1529 34.8307 46.2082H35.1358H35.2295C35.324 46.2009 35.4154 46.1712 35.4963 46.1217C35.6484 46.0179 35.764 45.869 35.8269 45.696L37.5453 52.9058C38.0008 52.9058 38.4648 53.0137 38.6422 53.3656L38.6578 53.3954L38.882 54.3135V54.3234L38.8649 54.6498C38.8039 54.807 38.702 54.9451 38.5698 55.0499L38.5826 55.101C38.5999 55.1758 38.6005 55.2535 38.5843 55.3286C38.5682 55.4037 38.5356 55.4742 38.4889 55.5352L38.7486 56.7698L39.0863 58.3732L39.3531 53.4536L39.4169 52.2943C38.3867 48.8811 37.6971 46.7526 37.348 45.9088C36.5846 43.9553 35.1344 42.4086 32.9974 41.2687C32.9705 41.2545 24.2593 36.7279 19.3496 35.1756C19.2035 35.0516 19.0159 34.9877 18.8245 34.9968H18.7947H18.7692C18.7538 34.9982 18.7386 35.0011 18.7238 35.0053L18.3449 35.0663C17.9192 35.1954 17.6595 35.729 17.7461 36.315C17.8327 36.9011 18.2371 37.3367 18.6784 37.3395L19.0402 37.2913C19.062 37.2926 19.0838 37.2926 19.1055 37.2913C19.1209 37.2898 19.1361 37.287 19.1509 37.2828C19.2851 37.242 19.4071 37.1687 19.5061 37.0694C19.6051 36.9702 19.6781 36.848 19.7185 36.7138C19.6687 36.937 19.5633 37.1439 19.412 37.3154ZM33.7736 55.3763C33.8133 55.5452 33.5224 55.758 33.1251 55.8502C33.0025 55.8798 32.8767 55.8946 32.7505 55.8942C32.8274 55.8867 32.9038 55.8739 32.979 55.8559C33.3763 55.7637 33.6672 55.5508 33.6289 55.382V55.3678C33.6743 55.3465 33.7183 55.3252 33.7608 55.3025L33.7736 55.3763ZM34.0177 54.6668C34.1468 55.2131 32.3915 55.6743 32.0878 55.4018C32.5362 55.5693 33.9084 55.1322 33.8048 54.6924L33.7183 54.2936C33.2159 54.7349 31.9005 54.83 31.6437 54.4355C31.7856 54.5334 32.0822 54.5774 32.4596 54.5263C32.582 54.5122 32.7034 54.4899 32.8229 54.4596L30.9782 46.5516L31.3187 46.6495L33.1194 54.383C33.3196 54.3178 33.5066 54.2174 33.6714 54.0864L33.6175 53.8438C33.7176 53.8675 33.8043 53.9297 33.8587 54.0169L34.0177 54.6668ZM33.6828 56.0858L36.0568 65.786C35.8994 65.8286 35.7513 65.8998 35.6197 65.996L33.223 56.2476C33.3814 56.2093 33.5354 56.1551 33.6828 56.0858ZM6.54318 47.508V47.4981C6.5971 47.386 6.75745 47.3562 6.95469 47.3718C7.11916 47.3864 7.28043 47.4261 7.43289 47.4896C7.55412 47.5373 7.66975 47.5982 7.7777 47.6712H7.76919C7.57291 47.5673 7.36031 47.4977 7.14058 47.4654H7.12497C7.01085 47.4482 6.89423 47.4599 6.78583 47.4995C6.73516 47.5216 6.69535 47.563 6.67515 47.6144L6.51338 47.5903L6.54318 47.508ZM10.119 40.7763C9.97034 40.643 9.83534 40.4952 9.71604 40.335L7.07814 46.9205C7.25699 46.9502 7.43241 46.9977 7.60175 47.0624L9.44643 42.4451L10.119 40.7763ZM7.26545 53.6565L7.93237 50.2381C7.79587 50.2713 7.65563 50.2866 7.51519 50.2836C7.42503 50.2818 7.33503 50.2751 7.24558 50.2637L5.78828 53.8849C6.28067 53.8012 6.77306 53.7345 7.26545 53.6565ZM6.92489 55.4104C7.94798 55.1124 9.08175 54.9265 9.73165 54.7619C10.1105 54.6668 10.3262 54.5788 10.2609 54.4781L9.76571 54.5888L6.96178 55.2174L4.22455 55.829H4.06704L6.83265 48.9341H6.84826C7.09013 49.0308 7.31933 49.1566 7.5308 49.3087H7.53789C7.6851 49.4073 7.80436 49.5422 7.88413 49.7003V49.7089C7.8969 49.1923 6.63825 48.4403 5.89754 48.5226L6.07208 48.0969C6.25938 47.6315 7.78763 48.1068 8.08988 48.5481C7.98629 48.1054 6.09336 47.4058 5.86207 47.9805L5.58962 48.6787C5.58396 48.7926 5.62319 48.9041 5.69888 48.9894L5.80531 48.734C6.03862 48.7201 6.27256 48.7475 6.49635 48.8149L3.85987 55.4288H3.84142L3.67824 55.8545L2.18688 55.9155C1.36954 56.3412 1.67321 57.4409 2.13722 57.404L3.23126 57.3189L3.44836 57.3019H3.481L4.44733 57.2253L4.73823 57.2025C4.73517 57.1894 4.73281 57.1762 4.73113 57.1628C4.73113 57.1486 4.73113 57.1344 4.73113 57.1217V57.0819C4.73042 57.0687 4.73042 57.0554 4.73113 57.0422C4.72971 57.0295 4.72971 57.0166 4.73113 57.0039C4.73019 56.9784 4.73019 56.9528 4.73113 56.9273C4.73044 56.9145 4.73044 56.9017 4.73113 56.889C4.73113 56.8776 4.73113 56.8648 4.73113 56.8521L4.73964 56.8152L4.74958 56.7797C4.74958 56.7669 4.75667 56.7556 4.76093 56.7442L4.7737 56.7087C4.7737 56.6974 4.78363 56.6846 4.78931 56.6733C4.79392 56.6617 4.79913 56.6503 4.80492 56.6392L4.82195 56.6052C4.82904 56.5938 4.83472 56.5824 4.84181 56.5725L4.86168 56.5385L4.88438 56.5058L4.90709 56.4746L4.93263 56.442L4.95817 56.4107L4.98513 56.3795L5.01351 56.3497L5.04331 56.3199L5.07453 56.2901L5.10716 56.2603L5.14122 56.232L5.17527 56.2022L5.21075 56.1752L5.24764 56.1468L5.28596 56.1199L5.32569 56.0929L5.36542 56.0659L5.40657 56.039L5.44772 56.0134L5.49171 55.9879L5.5357 55.9624L5.57969 55.9382L5.62509 55.9127L5.67192 55.8886L5.72017 55.8644L5.76841 55.8417L5.81666 55.819L5.86632 55.7963L5.91741 55.775L5.96849 55.7538L6.01957 55.7311L6.07208 55.7098L6.126 55.6885L6.17992 55.6672L6.23384 55.6473L6.28776 55.626L6.3431 55.6062L6.39986 55.5863L6.4552 55.5679L6.51196 55.548L6.57014 55.5296L6.6269 55.5097L6.68508 55.4912L6.74326 55.4742L6.80144 55.4558L6.86103 55.4387L6.92489 55.4104ZM6.66379 61.1672C5.79112 61.004 5.32001 61.617 5.06317 62.2187L4.13941 62.389L3.79885 61.3559C3.17166 61.9131 3.06902 62.5242 3.49093 63.1893C3.5704 63.2914 3.64277 63.395 3.70946 63.5C4.05285 64.0421 4.22171 65.041 4.23732 65.6739C4.20733 65.7968 4.1888 65.9222 4.18198 66.0485C3.88541 67.8109 4.65309 69.8912 6.00822 71.5656C5.60452 71.0246 5.28008 70.4287 5.04473 69.7961H7.69682C7.51669 69.4733 7.36431 69.1358 7.24132 68.7872H4.75951C4.71978 68.5899 4.68714 68.3884 4.66302 68.1841H7.05544C6.88583 67.5242 6.79064 66.8474 6.77164 66.1663H4.67721C4.69991 65.979 4.72829 65.7889 4.76093 65.5987C4.79357 65.4086 5.00783 64.6664 5.11 64.3003H6.75887L6.57582 63.9754H4.67721C4.66196 64.1469 4.63012 64.3166 4.58214 64.482C4.45654 64.0308 4.2653 63.6005 4.01454 63.2049L6.33601 63.2375C6.04228 62.3861 5.99403 61.6908 6.68934 61.214C6.67515 61.1942 6.66379 61.18 6.66379 61.1672ZM6.10471 59.6063V59.5879V59.5794L6.0962 59.5538L6.08769 59.5297L6.07775 59.5027L6.06924 59.4772V59.4559L6.05931 59.4289V59.4176V59.402L6.04937 59.375V59.3566V59.3481L6.03944 59.3211L6.03093 59.2941L6.02099 59.2658L6.01106 59.2388V59.2317V59.2104L6.00113 59.182V59.1678V59.1537L5.99261 59.1253L5.9841 59.104V59.0969L5.97417 59.0685L5.96423 59.0387L5.94153 58.9734V58.9522L5.9316 58.9224V58.9068V58.8926L5.92166 58.8628L5.91315 58.8386L5.90322 58.8088L5.89328 58.7776L5.88477 58.7492L5.87342 58.718V58.7081V58.6882L5.86348 58.657L5.85639 58.6386V58.6258L5.84504 58.5946L5.83652 58.5676L5.82517 58.5364L5.81524 58.5038L5.80531 58.4754L5.79537 58.4427V58.4314V58.4115L5.78544 58.3789V58.3576V58.3463L5.77409 58.3136L5.76416 58.2838L5.7528 58.2512L5.74145 58.2171L5.73152 58.1902L5.72159 58.1561V58.1419V58.1221L5.71023 58.0894L5.70172 58.0653V58.0554L5.69037 58.0213L5.67902 57.9887L5.66766 57.9532L5.65631 57.9191V57.912L5.6478 57.8851L5.63645 57.8496V57.8326V57.8141L5.62367 57.7801L5.61516 57.7531V57.7446L5.60381 57.7091L5.59246 57.6737L5.65915 57.6637L3.54202 57.7999L4.74106 61.3361C5.10007 60.899 6.0366 60.6578 6.66521 61.1729V61.1601V61.1473V61.1388V61.1246V61.1161V61.1019V61.0892V61.075V61.0608V61.0494V61.0352V61.0281V61.0125V61.0012V60.987V60.9714V60.9586V60.943V60.9331V60.9175V60.9061L6.65812 60.8905V60.8749V60.8593V60.8437V60.8323V60.8153V60.8039V60.7869V60.7713V60.7543L6.65102 60.7373V60.7245V60.7075V60.6975V60.689L6.64393 60.6706V60.6549V60.6365L6.63683 60.6181V60.6024V60.584V60.5741L6.6269 60.5457V60.5301L6.61271 60.4918L6.59852 60.4535V60.4449V60.4336L6.59143 60.4137V60.3995V60.3924V60.3726L6.58433 60.3513V60.33L6.57724 60.3101V60.303V60.2888L6.57014 60.2676V60.2548V60.2463L6.56163 60.225L6.54744 60.181L6.53892 60.1583V60.1413L6.53041 60.1186C6.20972 59.9071 6.15863 59.7624 6.10613 59.6092L6.10471 59.6063ZM8.68586 60.3158L8.66883 60.3343L8.65606 60.3484L8.63903 60.3669L8.6291 60.3768L8.60497 60.401L8.58227 60.4222L8.56524 60.4378L8.55105 60.4506L8.5326 60.4691L8.51983 60.4804L8.50139 60.4974L8.49287 60.506L8.46449 60.5301L8.43611 60.5542L8.4049 60.5797L8.38361 60.5968L8.36375 60.6138L8.34246 60.6308L8.32827 60.6422L8.30699 60.6578L8.27151 60.6847L8.24881 60.7018L8.23462 60.7117H8.22752L8.20482 60.7287L8.19489 60.7358L8.18211 60.7443L8.11684 60.7898L8.09414 60.8068L8.07569 60.8196L8.05157 60.8352L8.0388 60.8437L8.00474 60.8664H7.99623L7.95508 60.8919L7.93237 60.9061L7.90967 60.9189L7.86852 60.943H7.85858L7.83304 60.9586H7.82169L7.8075 60.9671L7.78196 60.9827L7.73939 61.0069L7.69114 61.0324L7.61026 61.0764H7.60033L7.55492 61.1005L7.50667 61.1246L7.4783 61.1388L7.45985 61.1473H7.44992L7.40876 61.1658L7.39174 61.1729L7.36336 61.1871L7.31227 61.2112C6.24377 61.9448 6.98874 63.3666 7.39174 64.3032L7.44708 64.4337C7.2295 67.5924 8.05204 70.0241 9.9147 71.7287C9.44066 71.1205 9.01778 70.4741 8.65038 69.7961H10.163C9.99355 69.4778 9.86664 69.1386 9.78557 68.7872H8.25448C8.18779 68.5857 8.12819 68.3842 8.07569 68.1841H9.68483C9.61001 67.5118 9.60716 66.8335 9.67631 66.1606H7.79899C7.7933 65.8704 7.80325 65.58 7.82879 65.2908C7.96104 64.5351 8.13585 63.7876 8.35239 63.0516L8.37794 62.9849L8.41057 62.8813L8.42192 62.8473L8.44605 62.7721L8.45598 62.7409L8.49004 62.6401V62.6259L8.517 62.5507L8.52835 62.5167L8.55957 62.4315V62.4216V62.406L8.58795 62.3308L8.59788 62.3052L8.622 62.2414L8.63052 62.2201V62.213L8.66173 62.1321L8.67025 62.1137L8.69863 62.0427L8.70714 62.0243L8.73836 61.9477L8.75255 61.9164L8.77241 61.871L8.7866 61.8384L8.81357 61.7788V61.7689L8.8462 61.7007L8.85755 61.678L8.88451 61.6227V61.6114V61.6L8.91148 61.5447L8.92708 61.5149L8.94837 61.4737L8.95972 61.4524L8.99236 61.3914L9.02358 61.3361L9.03351 61.319L9.05621 61.2793L9.07608 61.2453L9.10304 61.2013V61.1885L9.13 61.1445L9.13993 61.1275L9.17257 61.0778L9.19811 61.0395L9.21656 61.0125L9.23217 60.9884L9.24778 60.9657L9.27474 60.9274L9.2946 60.9019L9.31163 60.8777L9.3244 60.8593L9.35136 60.8238L9.36697 60.8039L9.38684 60.777L9.39819 60.7642L9.42515 60.7302V60.7231L9.45211 60.6904L9.47056 60.6691L9.49184 60.645L9.5188 60.6152V60.6081L9.54293 60.5797L9.55428 60.5684L9.58691 60.5343L9.62097 60.4989V60.4918L9.65219 60.462L9.67915 60.4364L9.6976 60.418L9.71179 60.4038L9.73023 60.3882L9.75719 60.3626L9.78132 60.3399L9.79409 60.3286L9.80686 60.3158H9.81395L9.83382 60.2988L9.85936 60.2761L9.86929 60.2676L9.88632 60.2534L9.90903 60.2335L9.93599 60.2108L9.96153 60.1895L9.97714 60.1768L9.98849 60.1682C10.2203 59.9897 10.4406 59.7968 10.6483 59.5907C11.3805 58.8174 9.23926 57.7701 9.19244 59.3679C9.08916 59.7171 8.91744 60.0422 8.68727 60.3243L8.68586 60.3158ZM39.495 74.1722L26.5963 74.8576C24.3728 74.8335 22.7551 72.9846 22.9935 70.7823C23.0106 68.5119 25.2824 66.9198 27.3924 66.8346L33.636 66.5835H30.7412C30.3314 66.5824 29.9386 66.419 29.6488 66.1292C29.359 65.8394 29.1956 65.4467 29.1945 65.0368V62.9083C29.1956 62.4984 29.359 62.1057 29.6488 61.8159C29.9386 61.526 30.3314 61.3627 30.7412 61.3616H31.5855V58.8543C31.5852 58.6434 31.6265 58.4346 31.7071 58.2398C31.7877 58.045 31.906 57.868 32.0552 57.7191C32.1715 57.6056 32.304 57.5099 32.4483 57.4353L32.1645 56.2121C32.0958 56.1826 32.0351 56.1375 31.987 56.0804C31.939 56.0232 31.905 55.9556 31.8878 55.8829L31.875 55.8261C31.621 55.7552 31.4181 55.6147 31.3585 55.3621L31.1726 54.5348V54.505C31.1726 54.2212 31.4081 53.9871 31.6309 53.8367C31.6977 53.7906 31.7674 53.7489 31.8395 53.7118L30.0984 46.2068C26.97 44.031 22.8805 41.6376 17.8298 39.0267L11.7282 59.0515C11.721 59.3118 11.6731 59.5694 11.5863 59.8149C12.2206 59.8589 12.852 59.9284 13.4863 59.9568L13.7446 59.9682L13.8865 60.1838C14.9337 61.7646 15.9804 63.3454 17.0267 64.9261C17.4637 64.8623 17.9022 64.7998 18.3392 64.7388L18.8174 64.6721L19.1282 65.0396L20.7572 66.9723L21.3773 67.7073L20.5699 68.2522C18.5521 69.6499 15.48 71.8451 13.0833 72.3162C12.0205 72.2509 10.2808 72.468 9.12432 72.5021C8.04213 72.5517 6.95774 72.5189 5.88051 72.4042C4.70701 72.2623 3.52925 71.9317 2.61684 71.1271C1.49583 70.1452 1.09994 68.7148 0.987835 67.2646C0.804785 64.8168 1.3213 62.2981 1.80659 59.9043L2.30324 59.8859L1.81085 58.5634C1.12973 58.0298 0.366317 57.2281 0.607546 56.293C0.891344 55.2259 2.38128 54.6299 3.84142 54.2681L5.6705 49.6422C5.29873 49.3797 4.97945 49.0263 5.03621 48.6361V48.6035L5.37961 47.7237C5.49029 47.447 5.74997 47.3278 6.05505 47.298L6.07491 47.2512C6.1033 47.1797 6.14716 47.1154 6.20334 47.0629C6.25952 47.0104 6.32664 46.971 6.39986 46.9475L8.63477 41.5298C8.1736 41.0573 7.79473 40.4939 7.78338 39.8114C7.77203 38.9444 8.38361 38.1682 8.90154 37.5254C9.63908 36.6105 10.3228 35.6534 10.9491 34.6591L10.9747 34.6222L12.4888 26.8447L16.1398 26.2033L16.8947 26.0713L17.3204 26.2373C18.1349 26.663 18.3307 27.4946 18.1023 28.3914L22.2173 31.7785C22.582 31.5046 23.0148 31.3102 23.3696 31.4834L23.3979 31.4975L24.1316 32.0949C24.36 32.2851 24.3941 32.5689 24.3288 32.8697L24.3685 32.9009C24.4278 32.95 24.4755 33.0116 24.5081 33.0812C24.5407 33.1509 24.5575 33.227 24.5573 33.3039L33.4827 40.7238C34.4432 41.2418 35.3208 41.9004 36.0866 42.6778C36.9137 43.5295 37.5634 44.5371 37.9979 45.642C38.3314 46.4849 38.618 47.3746 38.8947 48.2388C39.031 48.6645 39.1658 49.0902 39.2991 49.5159C39.3662 49.3989 39.4488 49.2915 39.5446 49.1966C39.8224 48.9257 40.1822 48.7545 40.5677 48.7099L47.3718 47.8032L47.4399 47.7932L47.5052 47.806L52.3297 48.7127C52.7165 48.7779 53.0751 48.9567 53.3599 49.2264C53.4938 49.357 53.5999 49.5133 53.6718 49.686C53.7438 49.8586 53.78 50.044 53.7785 50.2311V57.2593L57.7517 57.4679C58.0362 57.483 58.3047 57.6046 58.5038 57.8085C58.704 58.011 58.8167 58.2842 58.8174 58.569V63.1807L59.7198 63.2176C59.7198 64.8168 60.0036 66.5963 57.7332 66.5963H47.0724C47.1331 66.7498 47.1639 66.9136 47.1632 67.0787V67.1227L47.447 67.1099V67.117L52.903 66.8701L53.0236 66.8574C54.1321 66.7426 55.2408 67.0728 56.1058 67.7755C56.9708 68.4782 57.5213 69.4957 57.636 70.6042C57.7508 71.7127 57.4206 72.8214 56.7179 73.6864C56.0152 74.5514 54.9977 75.1018 53.8892 75.2166C49.4265 75.6792 47.6911 75.8481 43.1489 75.7133C42.461 75.7774 41.768 75.6712 41.1309 75.4039C40.4939 75.1366 39.9325 74.7165 39.4964 74.1808L39.495 74.1722ZM52.5497 72.0154V72.0906C52.5474 72.2415 52.489 72.386 52.3859 72.4962C52.2828 72.6064 52.1424 72.6742 51.992 72.6866L49.7216 72.8285C49.6498 72.8338 49.5776 72.8241 49.5097 72.8C49.4419 72.776 49.3797 72.738 49.3273 72.6887C49.2748 72.6393 49.2332 72.5795 49.2051 72.5132C49.177 72.4469 49.163 72.3755 49.164 72.3034V72.241L49.5031 72.2183V72.3034C49.5024 72.329 49.5071 72.3545 49.5169 72.3781C49.5268 72.4017 49.5415 72.423 49.5601 72.4406C49.5787 72.4581 49.6008 72.4715 49.625 72.4799C49.6492 72.4883 49.6749 72.4915 49.7003 72.4893L51.9707 72.3474C52.0349 72.3406 52.0945 72.3109 52.1386 72.2637C52.1826 72.2166 52.2082 72.1551 52.2105 72.0906V72.0381L52.5497 72.0154ZM47.6485 70.0004C48.0742 70.0004 48.4531 70.3012 48.6588 70.7539V70.7653V70.7752V70.7865V70.7979V70.8092V70.8206V70.8319V70.8433V70.8546V70.866V70.8745V70.8873V70.8986V70.9086V70.9199V70.9327V70.9426V70.9554V70.9667V70.9852V70.9965V71.0178V71.0292V71.0405V71.0533V71.0661V71.0788V71.0902V71.1001V71.1129V71.1257V71.1512V71.164V71.1895V71.2278V71.242V71.2548V71.286V71.2945V71.3201V71.4109V71.4449V71.4875V71.5258V71.645V71.7231V71.75V71.7585V71.7656V71.7912V71.7983V71.8366V71.8522V71.8692V71.8863V71.9033V71.9118V71.9203V71.9359V71.9615V71.97V71.987V71.9941V72.0026V72.0196V72.0282V72.0352V72.0438V72.0523V72.0679V72.0764V72.0849V72.092V72.1005V72.109C48.4914 72.6965 48.0614 73.1151 47.5562 73.1151C46.9064 73.1151 46.3785 72.4198 46.3785 71.5613C46.3785 70.7028 46.9972 70.0089 47.6471 70.0089L47.6485 70.0004ZM54.3177 69.7549C54.8357 69.7549 55.2571 70.3083 55.2571 70.9937C55.2571 71.6791 54.8314 72.2325 54.3177 72.2325C54.1673 72.2255 54.0213 72.1797 53.8937 72.0997C53.7662 72.0196 53.6615 71.908 53.5898 71.7756L53.5827 71.7656V71.7557V71.7458C53.5743 71.7325 53.5667 71.7188 53.56 71.7046V71.6933V71.6833V71.672L53.5501 71.6521V71.6408V71.6323V71.6209V71.611V71.6025V71.5911V71.5798V71.5698V71.5585V71.5457V71.5343V71.5216V71.5102V71.5003V71.4875V71.4747V71.4634V71.4535V71.4407V71.4293V71.4066V71.3939V71.3811V71.374V71.3612V71.3499V71.3243V71.269V71.2562V71.242V71.2193V71.1924V71.1668V71.1001V70.91V70.8745V70.8476V70.8206V70.7936V70.7596V70.7241V70.7057V70.6971V70.6801V70.6716V70.656V70.6475V70.639V70.6219V70.6134V70.5964V70.5879V70.5808V70.5723V70.5552V70.5467V70.5382V70.5297V70.5212V70.5127V70.5056V70.4971V70.49V70.4815V70.4744C53.6423 70.0359 53.9573 69.7634 54.322 69.7634L54.3177 69.7549ZM54.3802 72.5205H54.3177H54.2326H53.7487C53.5636 72.4815 53.3906 72.3983 53.2446 72.2779C53.0986 72.1576 52.9838 72.0038 52.9101 71.8295L49.0419 72.0906C48.8745 72.8611 48.3509 73.4344 47.7223 73.4784H47.6442C47.6088 73.4805 47.5732 73.4805 47.5378 73.4784L46.9305 73.4713C46.2082 73.3592 45.6534 72.5489 45.6534 71.5656C45.6534 70.5822 46.2139 69.7705 46.9305 69.6599L47.5662 69.6499C47.5922 69.6485 47.6182 69.6485 47.6442 69.6499H47.735C48.2771 69.6939 48.7383 70.1281 48.9596 70.7425L52.7909 70.4843C52.9328 69.9493 53.3032 69.552 53.7459 69.491L54.2525 69.4825H54.3873C54.9932 69.5322 55.4742 70.192 55.4742 71.0093C55.4742 71.8267 54.996 72.4851 54.3844 72.5291L54.3802 72.5205ZM49.7103 69.8599L51.9807 69.718C52.0525 69.7127 52.1247 69.7224 52.1925 69.7465C52.2604 69.7705 52.3226 69.8085 52.375 69.8578C52.4275 69.9072 52.4691 69.967 52.4972 70.0333C52.5253 70.0996 52.5393 70.171 52.5383 70.2431V70.3239L52.1992 70.3466V70.2431C52.1999 70.2175 52.1952 70.192 52.1853 70.1684C52.1755 70.1448 52.1608 70.1235 52.1422 70.1059C52.1236 70.0884 52.1015 70.075 52.0773 70.0666C52.0531 70.0582 52.0274 70.055 52.0019 70.0572L49.7316 70.1991C49.667 70.2052 49.6069 70.2347 49.5625 70.282C49.5181 70.3293 49.4925 70.3911 49.4903 70.4559V70.5269L49.1512 70.5496V70.4559C49.1557 70.3056 49.2158 70.1624 49.3199 70.0539C49.424 69.9453 49.5646 69.8793 49.7145 69.8685L49.7103 69.8599ZM54.7917 68.2423C57.79 69.1987 57.1316 73.8941 53.4578 74.1822L47.6981 74.6348C47.2014 74.6738 46.7017 74.6189 46.2252 74.4731C46.1557 74.4319 46.0833 74.3908 46.0223 74.3468H46.1117C46.4585 74.4134 46.8126 74.4329 47.1646 74.405L52.9229 73.9651C56.1667 73.704 57.3033 69.6811 54.7959 68.2508L54.7917 68.2423ZM47.105 68.5105L47.6102 68.4722C45.9074 68.6581 44.6303 70.2232 44.7481 71.9629C44.7885 72.5782 45.0113 73.1675 45.388 73.6557C44.842 73.159 44.5103 72.4696 44.4629 71.733C44.3493 70.1338 45.5441 68.6822 47.105 68.5105ZM31.7317 71.5854H38.6265C38.6387 71.7717 38.6624 71.9569 38.6975 72.1403H38.1952C37.9345 72.5414 37.5821 72.8747 37.1671 73.1125C36.752 73.3504 36.2863 73.486 35.8084 73.5082L34.4874 73.5649L30.7582 73.7238L29.7054 73.6458C29.1758 73.5115 28.7078 73.2007 28.3786 72.7646C28.5668 72.8702 28.7675 72.9517 28.976 73.0073L30.0289 73.0839L33.7566 72.925L35.0791 72.8682C35.7535 72.8374 36.3982 72.5811 36.9096 72.1403H35.0436L34.6931 71.8025L31.7317 71.5854ZM36.3122 70.1338H37.8731L37.8972 69.5662C37.9083 69.2958 37.8703 69.0256 37.7851 68.7687L38.1952 68.7957C38.4823 69.1822 38.6343 69.6524 38.628 70.1338H38.8209C38.7754 70.2639 38.7375 70.3966 38.7074 70.5311H31.0704C29.6514 70.5311 29.2399 70.866 28.8511 71.5443C28.9334 70.7894 29.2357 70.1622 29.9721 70.1352C31.533 69.8997 34.2135 69.6031 35.7786 69.3377C35.9986 69.3023 36.2398 69.447 36.3122 70.1338ZM40.3052 73.9722C40.4715 74.1373 40.654 74.2852 40.8501 74.4135L44.6402 74.5156C44.5015 74.3787 44.3725 74.2321 44.2543 74.0772L40.3052 73.9722ZM39.6383 73.047C39.7128 73.1977 39.7982 73.3428 39.8937 73.4812L43.9364 73.589C43.8586 73.4492 43.7894 73.3046 43.7292 73.1562L39.6383 73.047ZM39.336 72.1317C39.3629 72.2757 39.3984 72.4178 39.4425 72.5574L43.5689 72.6667C43.532 72.5264 43.5021 72.3843 43.4795 72.241L39.336 72.1317ZM39.2949 71.2236C39.2826 71.3651 39.2788 71.5073 39.2835 71.6493L43.4369 71.7614C43.4329 71.6194 43.4367 71.4773 43.4483 71.3357L39.2949 71.2236ZM39.4978 70.3225C39.4463 70.4614 39.4041 70.6037 39.3715 70.7482L43.515 70.8589C43.5446 70.7152 43.5816 70.5731 43.6256 70.4332L39.4978 70.3225ZM39.9902 69.4286C39.8884 69.5634 39.7969 69.7057 39.7163 69.8543L43.8101 69.9635C43.8778 69.8175 43.9536 69.6754 44.0372 69.5378L39.9902 69.4286ZM40.9707 68.5474C40.773 68.6663 40.5876 68.8046 40.4173 68.9603L44.3749 69.0667C44.4984 68.9181 44.6326 68.7786 44.7764 68.6495L40.9707 68.5474ZM28.6652 68.2309C28.9365 68.0484 29.2322 67.9051 29.5436 67.8052H26.2459C25.9299 67.9137 25.6268 68.0565 25.342 68.2309H28.6652ZM27.7344 69.1405C27.8434 68.9904 27.9629 68.8482 28.092 68.7148H24.7105C24.5696 68.846 24.4396 68.9883 24.3217 69.1405H27.7344ZM27.2604 70.0472C27.313 69.9018 27.3741 69.7597 27.4435 69.6215H24.0195C23.9498 69.7583 23.8919 69.9007 23.8463 70.0472H27.2604ZM27.076 70.954C27.0847 70.8111 27.1027 70.6689 27.1299 70.5283H23.747C23.737 70.6226 23.7318 70.7173 23.7314 70.8121V70.8433C23.7314 70.8788 23.7243 70.9142 23.7215 70.9483L27.076 70.954ZM27.076 71.8607V71.435H23.7158C23.7255 71.5782 23.7454 71.7204 23.7754 71.8607H27.076ZM27.1895 72.7674C27.1504 72.6278 27.1214 72.4856 27.1029 72.3417H23.923C23.9824 72.4894 24.0541 72.6318 24.1372 72.7674H27.1895ZM27.6322 73.6742C27.5333 73.5405 27.4468 73.398 27.374 73.2485H24.5076C24.664 73.4108 24.8393 73.5537 25.0298 73.6742H27.6322ZM35.3274 68.2536C35.2909 68.1575 35.2722 68.0556 35.2721 67.9528V67.9358L30.4248 68.2891C28.7021 68.414 27.7159 70.1423 27.8011 71.7273C27.8536 70.236 28.8199 68.7219 30.4276 68.6055L35.2735 68.2551L35.3274 68.2536ZM3.72649 68.1841C3.56706 67.522 3.52623 66.837 3.60587 66.1606H1.83923C1.82237 66.837 1.87611 67.5132 1.99957 68.1784L3.72649 68.1841ZM3.89818 68.7872H2.14857C2.25684 69.1429 2.41294 69.4823 2.61258 69.7961H4.33523C4.16106 69.4729 4.01484 69.1353 3.89818 68.7872ZM18.8416 35.3189C19.175 35.2692 19.4986 35.5871 19.5638 36.0284C19.6291 36.4697 19.4092 36.867 19.0743 36.9152C18.7394 36.9635 18.4173 36.6471 18.352 36.2058C18.2867 35.7644 18.5067 35.3685 18.8416 35.3189ZM19.1254 36.7038C18.8742 36.7421 18.6273 36.5066 18.572 36.1745C18.5166 35.8425 18.6755 35.536 18.9295 35.4948C18.9864 35.4851 19.0448 35.489 19.0998 35.5062C18.8472 35.5488 18.6869 35.8524 18.7422 36.1873C18.7544 36.3003 18.7967 36.4079 18.8649 36.4988C18.9331 36.5897 19.0246 36.6605 19.1296 36.7038H19.1254ZM11.0627 40.0214H10.8356H10.8214C10.4284 39.9604 10.2226 39.539 10.2226 39.17C10.2226 38.8011 10.4284 38.3853 10.8214 38.3186H10.8314H11.0698C11.144 38.3202 11.2178 38.3302 11.2897 38.3484C11.3955 38.3849 11.4896 38.4491 11.5621 38.5343C11.5012 38.4947 11.4316 38.4704 11.3592 38.4634H11.2968H11.0627C10.7959 38.5045 10.5887 38.8039 10.5887 39.1729C10.5887 39.5418 10.7959 39.8355 11.0627 39.8824H11.2869H11.355C11.4284 39.876 11.499 39.8516 11.5607 39.8114C11.5092 39.8734 11.4457 39.9244 11.374 39.9612C11.3023 39.998 11.2239 40.0199 11.1435 40.0257H11.0627V40.0214ZM11.3763 38.6762C11.5834 38.6762 11.7509 38.8976 11.7509 39.17C11.7509 39.4425 11.5834 39.6652 11.3763 39.6652C11.1691 39.6652 11.0016 39.4439 11.0016 39.17C11.0016 38.8962 11.1648 38.6762 11.372 38.6762H11.3763ZM10.7576 37.4119C11.3665 36.3756 11.9147 35.3049 12.3994 34.205C12.428 34.1477 12.4761 34.1025 12.535 34.0775C12.5939 34.0524 12.6599 34.0492 12.721 34.0683C12.7821 34.0874 12.8344 34.1276 12.8686 34.1818C12.9027 34.236 12.9165 34.3005 12.9074 34.3639C12.2707 37.7042 11.8757 39.7759 11.7225 40.5791C11.7146 40.6221 11.6964 40.6626 11.6694 40.6971C11.6424 40.7315 11.6074 40.7589 11.5674 40.7768C11.5274 40.7946 11.4837 40.8025 11.4401 40.7997C11.3964 40.7969 11.354 40.7835 11.3167 40.7607C9.64367 39.6865 9.84233 38.9671 10.7576 37.4119ZM9.48049 37.9795C9.59969 37.8376 9.71888 37.6815 9.83524 37.5297L9.78983 37.6134V37.6276L9.78274 37.6418C9.72314 37.7539 9.6678 37.8674 9.61671 37.9837V37.9937L9.6082 38.0121L9.56137 38.1242V38.1398V38.154L9.55144 38.1781L9.54009 38.2079L9.53016 38.2349V38.2463V38.2647L9.52022 38.2945L9.51029 38.3229L9.50036 38.3527V38.3598L9.49184 38.3825L9.48333 38.4123L9.47481 38.4378L9.4663 38.4676V38.4946C9.45779 38.5244 9.45069 38.5556 9.4436 38.5854V38.6166V38.6407V38.662V38.6876L9.35988 38.7741V38.7926V38.8096V38.828V38.8493V38.8593V38.8891V38.9189V38.9416V38.9643V38.9926V39.004V39.0352V39.1587V39.3417V39.3715V39.3843V39.4113V39.4198V39.4567V39.4836V39.4978V39.512V39.5248V39.539V39.5531V39.5815V39.6V39.6142V39.6255V39.6369V39.6638V39.6837L8.91289 40.7678C8.17218 39.8284 8.54112 39.1587 9.48475 37.9852L9.48049 37.9795ZM16.4052 35.0124C15.7099 35.4026 16.4052 36.3093 17.3786 36.9621C17.2946 36.7968 17.2381 36.619 17.2111 36.4356C17.1775 36.2272 17.1861 36.0141 17.2366 35.8091C17.287 35.604 17.3783 35.4113 17.5049 35.2423L17.5205 35.2252L17.5318 35.211L17.5503 35.1912L17.5673 35.1741C17.5771 35.1631 17.5881 35.1531 17.6 35.1443H17.607L17.6255 35.1302L17.6454 35.116L17.6595 35.106L17.7064 35.0777L17.7291 35.0649L17.7546 35.0521L17.7787 35.0408L17.8014 35.0308L17.8227 35.0223L17.8483 35.0138L17.8752 35.0053H17.8908L18.1874 34.957C17.2083 34.8535 16.6138 34.9244 16.3016 35.0989L16.4052 35.0124ZM11.3053 57.8581C11.1552 57.6915 10.9776 57.5518 10.7803 57.4452L10.7618 57.4353L10.7363 57.4211L10.6795 57.3927L10.4951 57.3061H10.4738C10.3638 57.2635 10.2515 57.2271 10.1375 57.1969L10.0864 57.1841H10.0694L9.99842 57.177C9.74742 57.1503 9.49373 57.1657 9.24778 57.2224L9.40103 56.442C9.72283 56.2819 10.0351 56.1033 10.3361 55.907C10.461 55.8247 10.5816 55.7396 10.698 55.6516C11.6104 54.9591 12.4206 53.9999 11.0272 53.4436C10.9631 53.419 10.8977 53.3977 10.8314 53.3798C10.5637 53.317 10.2887 53.2913 10.014 53.3032L15.094 27.3229L16.7173 26.7922C17.1251 26.9161 17.3616 27.1526 17.4268 27.5017C17.47 27.8117 17.4318 28.1275 17.3162 28.4183C16.5669 29.8586 17.2182 31.98 18.2342 34.388C14.1688 33.7168 15.4842 37.226 17.1728 38.6195L17.1516 38.6876L11.3053 57.8581Z" fill="#2D2D2D"/>
<defs>
<clipPath id="clip0_229_711">
<rect width="121.553" height="69.8152" fill="white" transform="translate(7.31494)"/>
</clipPath>
</defs>
</svg>
